<?xml version="1.0" encoding="UTF-8"?>
<!DOCTYPE svg PUBLIC "-//W3C//DTD SVG 1.1//EN" "http://www.w3.org/Graphics/SVG/1.1/DTD/svg11.dtd">
<!-- Creator: CorelDRAW 2018 (64-Bit) -->
<svg xmlns="http://www.w3.org/2000/svg" xml:space="preserve" width="380.912mm" height="146.957mm" version="1.1" style="shape-rendering:geometricPrecision; text-rendering:geometricPrecision; image-rendering:optimizeQuality; fill-rule:evenodd; clip-rule:evenodd"
viewBox="0 0 57407.22 22147.91"
 xmlns:xlink="http://www.w3.org/1999/xlink">
 <defs>
  <style type="text/css">
   <![CDATA[
    .str0 {stroke:#2B2A29;stroke-width:30.14;stroke-miterlimit:22.9256}
    .fil4 {fill:#2B2A29}
    .fil2 {fill:#E51A4B}
    .fil3 {fill:#E51A4B}
    .fil1 {fill:#26252D}
    .fil0 {fill:#82B11D}
    .fil5 {fill:#82B11D;fill-rule:nonzero}
   ]]>
  </style>
 </defs>
 <g id="Слой_x0020_1">
  <metadata id="CorelCorpID_0Corel-Layer"/>
  <g id="_2828731165984">
   <path class="fil0" d="M1268.77 7484.72l0 0zm-1262.09 3654.53l23.31 97.03c28.33,83.85 57.98,67.19 61.66,143.17 4.22,87.23 20.07,35.69 97.81,196.5 63.15,130.67 81.32,143.01 192.56,231.81 40.53,32.3 45.18,24.85 79.44,42.91 81.35,43.04 24.96,24.02 82.66,66.3 87.88,64.52 63.48,-4.96 157.97,87.1l193.48 115.34c142.68,174.7 203.13,82.3 358.46,133.56 316.36,104.46 519.5,-102.9 923.5,15.95 312,91.78 828.15,-1.43 1108.68,-150.94 150.03,-79.94 238.26,-41.57 434.26,-68.24 170.77,-23.22 383.01,42 533.81,105.96 63.71,27.02 163.44,53.2 195.44,112.19 350.43,-84.22 193.47,66.21 346.48,124.35 52.33,19.88 200.49,44.49 330.37,121.88l304.4 164.18c304.52,128.92 97.24,171.93 382,267.71 109.4,36.79 192.79,137.61 318.8,140.7 -2.97,117.03 -74.84,127.26 128.06,78.49 -15.69,72.93 25.39,85.21 64.88,122.57 137.25,129.79 494,344.88 676.96,362.5 135.79,13.13 192.02,38.11 230.59,198.52 -69.15,52.85 78.05,-23.41 -28.33,3.12 -42.85,10.72 10.43,-33.01 -25.74,9.39 -77.75,91 104.13,175.31 -97,176.69 35.84,108.47 98.93,105.56 199.96,104.85 -46.98,-195.38 83.84,-87.49 43.66,-272.62 82.35,30.44 128.27,118.49 162.81,222.99 71.62,-38.84 21.67,-27.31 93.29,-66.13 80.66,99.05 41.1,104.19 158.89,143.14 4.37,1.43 10.99,2.56 14.98,4.2 45.97,19.22 52.24,35.01 50.44,67.47 -4.52,82.17 -11.33,191.34 -67.94,250.71 -188,197.23 -413.74,202.15 -630.71,220.71 -152.47,13.08 -155.16,77.57 -346.45,78.97 -0.51,-67.88 8.27,-99.36 13.47,-167.89 16.34,-213.44 90.64,-234.14 -111.15,-420.27 -172.92,41.57 -277.02,134.52 -271.35,291.67 5.76,160.94 57.28,181.85 1.24,335.31 -33.04,90.44 -107.25,149.26 -180.26,224.18 -69.82,71.68 -228.46,475.5 -133.97,534.33 58.19,36.17 331.92,-46.09 411.54,-100.16l100.75 -96.76c52.07,-64.99 103.79,-78.67 133.66,-147.08l16.62 -42.67c2.03,-3.86 4.82,-9.51 7.13,-13.26 22.98,-38.16 55.11,-61.16 91.74,-84.65 36.26,-23.33 97.31,-62.82 116.23,-71.33 164.26,-74.01 222.36,29.04 387.31,43.46 55.78,4.82 107.53,18.69 127.23,16.56 68.17,-7.38 140.67,-98.73 220.02,-139.65 169.08,-87.37 42.91,36.41 242.76,-6.95 -39.83,107.7 -32.9,55.7 63.52,94.75 94.95,38.43 43.04,56.82 136.87,95.61 86.21,35.66 76.92,-5.17 126.79,109.4 81.34,186.65 42.97,389.89 24.69,584.9 -17.33,184.79 -46.06,225.02 126.79,288.96 41.99,-45.56 36.46,-52.04 91.84,-102.26 49.04,-44.53 61.04,-54.06 100.6,-96.91 149.56,-1.07 165.65,39.24 251.13,136.18 -31.21,74.66 21.28,30.19 -72.7,61.19 227.92,210.1 144.94,330.72 121.4,426.51 -18.48,75.34 73.58,455.37 91.28,549.01 41.34,217.76 40.15,432.84 -4.28,648.88 -64.85,315.12 -77.54,391.62 210.41,452.1 149.05,31.26 88.44,124.25 209.77,175.02 75.79,-89.51 21.28,-274.86 -16.68,-432.85 136.03,-3.68 29.84,-106.25 120.87,-52.27 95.35,56.5 22.59,227.3 21.28,280.21 81.29,17.47 78.5,-2.95 142.18,55.42 115.76,106.19 126.2,307.75 250.34,396.29 -18.25,122.65 39.03,-102.41 -19.83,40.65 -18.79,45.56 -4.76,-11.94 -15.39,43.45 -19.02,99.03 200.25,1196.29 223.47,1353.98 14.86,100.73 -12.61,57.87 60.09,140.36 188.72,-45.35 148.68,-133.15 129.13,-308.35l-54.83 -808.32c-11.18,-138.67 2.31,-245.66 108.6,-303.32 23.1,106.45 -13.61,80.67 37.27,116.89 48.45,34.54 31.62,8.62 49.18,19.08 31.88,19 83.95,160.04 195.56,122.74 111.39,-37.2 -44.37,-309.72 213.57,-377.81 128.15,157.45 203.01,606.11 274.76,874.01 23.59,88.06 74.16,157.34 81.5,197.73 9.63,52.36 -25.71,97.45 -4.22,170.15 29.18,98.7 175.41,239.25 287.96,174.36 69.33,-39.98 42.97,-102.35 25.02,-198.95 -17.35,-93.83 0.45,-113.74 -29.72,-210.9 -25.12,-80.58 -64.58,-116.36 -91.04,-198.7 -23.69,-73.67 -30.88,-144.95 -59.24,-219.55 -40.87,-107.5 -157.61,-280.32 -132.64,-389.48 47.61,-208.24 174.1,-131.87 263.79,-112.26 4.93,1.05 11.11,1.6 16.04,2.61 7.14,1.42 44.93,6.62 48.09,7.75 155.98,54.41 322.7,453.62 391.08,597.87 83.87,176.98 103.4,108.92 183.41,218.06 74.78,102 160.69,162.5 273.58,214.6 76.35,35.25 49.34,54.71 117.01,125.13 56.92,59.21 151.1,100.84 199.22,163.6 93.59,122.06 125.6,309.72 257.52,413.52 93.46,73.47 358.07,-19.52 429.07,-120.84l96.91 -134.39c-53.62,-223.11 -119.27,-398.96 -192.83,-605.19 -256.09,-717.79 -48.53,-553 304.3,-877.48 161.65,-148.63 320.61,109.61 468.71,-10.96 36.82,153.23 -1.54,116.36 93.7,249.17 135.28,188.55 258.18,547.38 433.64,672.5 -45.88,124 -85.15,219.57 -173.86,316.16 -87.07,94.83 -83.78,213.12 -176.99,314.17 44.99,187.17 199.42,506.19 323.98,621.09 193.5,-46.49 302.94,-83.64 260.13,-280.97 14.89,6.25 47.13,27.04 52.75,28.95 21.87,7.28 150.8,-6 154.43,17.72 9.54,61.6 39.98,83.82 88.68,130.64 68.75,66.07 71.03,136.42 127.18,195.82 253.66,268.19 169.34,263.05 332.51,210.38l15.37 170.42c129.88,3.24 140.18,174.45 261.06,177.49 25.14,104.53 33.83,168.52 81.38,240.95l104.58 116.82c128.42,94.01 97.21,-22.32 370.17,229.32 467.08,-112.28 316.66,-534.84 94.9,-787.52 -197.14,-224.72 -124.97,-224.06 -194.26,-284.69l-184.85 -131.39c-35.48,-24.64 -53.43,-31.59 -87.89,-57.69 -23.41,-17.77 -69.42,-55.99 -92.87,-78.41 -76.46,-72.94 -127.18,-75.55 -180.91,-135.96 -23.45,-26.39 -42.02,-66.64 -62.97,-98.38 -50.91,-77.25 -95.14,-101.91 -156.51,-175.7 -94.77,-113.85 -191.81,-296.31 -266.83,-426.9 -44.05,-76.58 -86.9,-152.34 -121.41,-233.06l-350.76 -721.19c-134.03,-34.35 -215.47,-164.95 -165.31,-294.79 12.49,-32.33 51.89,-55.64 75.99,-76.83 -18.04,-54.66 -23.19,-53.88 -45.48,-98.34 148.34,3.72 26.42,113.62 153.15,209.95 119.68,90.92 73.52,70.86 157.55,174.08 118.91,-28.57 189.95,-102.33 192.38,-199.15 8.36,-45.53 8.48,16.26 -10.2,-26.75l-23.6 -80.37c2.91,-142.93 105.96,-247.34 243.52,-292.74 8.76,56.88 3.81,58.49 4.16,108.19l144.55 -34.74c13.59,88.35 19.53,231.31 33.13,319.64 392.58,-94.36 452.64,7.46 666.35,349.66 116.45,186.38 100.4,485.68 291.1,617.28 58.66,40.51 84.89,74.83 150.62,99.12 138.17,-121.86 163.43,-171.3 97.48,-417.56 -49.66,-185.43 -263.47,-357.06 -360.86,-532.56 -126.45,-227.99 -73.05,-248.05 -201.97,-417.75 -34.5,-45.42 -24.79,-57.3 -57.93,-106.72 -28.06,-41.87 -32.28,-35.24 -65.38,-65.77 54.8,-29.69 31.29,-2.89 51.72,-54.89l-92.22 -22.71c-57.89,-240.8 -77.27,-143.11 -125.65,-254.9 -24.87,-57.39 -27.72,-93.61 -52.58,-144.12 -27.28,-55.33 -28.26,-54.01 -55.33,-110.94 -43.75,-91.87 -63.93,-136.59 -109.99,-253.07 -28.36,-71.71 -50.83,-165.39 -25.86,-255.66 22.73,-82.26 80.03,-142.03 151.61,-189.55 0,0 -38.11,-86.16 -99.75,-237.9l-5090.42 0c-715.31,0 -1305.77,-590.45 -1305.77,-1305.77l0 -8687.73c0,-715.31 590.45,-1305.77 1305.77,-1305.77l5140.47 0c5.92,-13.99 12.36,-25.45 19.19,-33.7 83.98,-101.43 91.25,-18.21 197.41,-87.77 47.62,-31.23 97.86,-109.52 153.72,-153.8 134.36,-106.43 232.09,-154.61 347.75,-280.06 -15.73,-65.45 -25.92,-138.62 -55.13,-197.52 -41.29,-83.39 -53.06,-63.39 -106.87,-113 -168.78,40.57 -339.62,173.66 -440.45,258.48 -47.68,40.12 -133.12,111.47 -162.34,164.74 -41.26,74.99 -44.19,258.87 -140.43,279.04 -2.44,0.47 -9,0.33 -11.5,0.93l-22.68 6.99c-108.98,43.77 -187.74,18.58 -312.77,34.78 -57.27,7.43 -111.09,29.13 -164.62,38.79 -119.06,21.52 -76.5,2.46 -157.3,-30.64 -201.59,-82.54 -264.59,-340.17 -450.67,-443.01 -86.81,-48.02 -338.96,-45.8 -460.45,-82.09 -162.45,-48.53 -140.34,-317.26 -311.97,-353.11 -243.05,-50.73 -212.35,-39.03 -364.43,-238.88 -446.55,-586.79 -620.28,-119.35 -862.87,-170.2 -41.6,-8.71 -63.01,-32.04 -117.52,-37.36 -111.33,-10.79 23.51,10.1 -98.49,11.06 -47.71,0.33 -83.18,-15.43 -127.27,-18.97 -209.82,-16.83 -451.66,44.13 -671.4,60.95 -196.01,15.07 -329.83,-25.49 -471.62,-92.55 -74.63,-35.31 -112.64,-99.35 -194.79,-113.2 -26.46,-4.42 -81.73,-3.51 -119.68,-6.63 -65.39,-5.5 -51.99,-14.51 -138.1,9.19 -121.25,33.35 -289.17,159.35 -421.97,220.82 -614.75,284.62 -494.78,87.67 -582.09,-31.89l-43.28 -44.31c-3.04,-4.07 -6.83,-8.67 -9.6,-13.08 -2.97,-4.75 -5.8,-9.81 -8.45,-14.98 -16.22,-31.21 -19.55,-58.13 -31.48,-92.32 -47.23,-135.11 -132.79,-130.82 -204.66,-240.92 -55.21,-84.56 -26.42,-64.37 -101.99,-120.99 -273.57,-205.18 -358.92,-879.74 -488.75,-1214.68l-51.77 -87.98c-3.12,-3.41 -8.02,-7.08 -11.24,-10.38 -14.41,-14.6 -50.86,-49.67 -111.13,-183.94 -53.88,-119.92 -168.21,-366.47 -237.76,-454.03 -88.9,-111.89 -215.38,-573.3 -338.31,-683.92l-23.1 -19.74c-4.69,-4.19 -17.86,-16.61 -22.46,-20.95l-127.18 -166.04c-149.81,-186.37 -130.71,-293.4 -380.65,-528.6l-116.74 -96.95c-68.68,-59.06 -255.44,-37.98 -348.26,16.61 -66.57,39.11 -142.96,180.28 -192.89,234.5 106.01,120.21 106.48,329.56 191.91,462.88 41.02,63.93 50.31,36.29 80.87,126.78 40.6,120.1 46.9,237.91 97.77,357.94 45.08,106.24 88.84,219.54 142.24,285.29 69.51,85.62 76.53,169.32 157.85,259.76 97.77,108.68 134.81,50.86 218.63,160.64 69.82,91.41 137.99,119.78 187.32,211.64 22.88,42.52 45.74,117.39 65.97,151.01 39.52,65.63 23.53,60.48 116.18,40.41 -24.11,112.28 19.05,88.59 65.33,180.85 -119.21,-2.97 -51.09,-104.14 -203.13,-99.75l-100.22 17.62c-123.72,31.75 -309.89,76.98 -353.49,172.98 -110.36,242.73 -66.25,491.09 -72.45,730.88 -5.2,202.07 130.02,366.71 251.5,734.7 -486.63,3.38 -341.48,316.23 -228.37,775.76 38.46,156.33 94.34,336.79 -62.8,438.4 -98.2,63.52 -327.22,-7.99 -426.8,-13.07 -35.27,-1.82 -101.79,5.21 -125.04,2.86 -50.29,-5.02 -58.42,-27.76 -96.67,-43.43 -27.53,-11.33 -67.64,-11.15 -110,-21.58 -166.2,-41.02 -297.09,-132.01 -378.58,-301.99 -181.38,-378.46 -244.96,-851.21 -426.15,-828.09 -30.38,141.62 61.49,260.73 -3.96,437.81 -105.09,22.77 -51.74,5.21 -124.94,2.73 -55.17,-1.84 -58.67,6.06 -109.87,6.87 -93.62,1.49 -32.93,-3.74 -107.08,-26.43 -77.92,-23.84 -89.16,2.37 -153.87,-36.26 -149.58,-89.19 -108.74,-17.05 -342.62,-73.11 -121.91,-29.19 -317.15,-68.14 -350.78,102.44l20.26 193.89c27.73,82.33 102.98,42.38 188.48,21.84 58.1,115.79 137.25,151.95 271.79,131.22 57.68,239.96 222.46,107.55 275.21,327.01 106.37,-23.07 121.43,-9 182.21,47.52 98.61,91.66 46.34,32.15 142.33,83.87 104.52,56.43 151.19,187.51 264.54,229.38 111.4,-55.85 96.59,-170.5 187.42,-219.75 35.55,107.71 66.07,183.87 100.07,325.41 57.68,11.54 3.44,0.95 55.75,1.04 13.5,0 18.58,-3 31.8,-0.24 12.87,83.61 -11.8,129.04 -19.82,201.62 -12.7,114.68 18.24,94.15 83.54,154.37 -195.29,46.93 -172.13,158.74 -443.45,62.05 -40.41,-14.38 -62.02,-33.29 -92.97,-40.36l-85.8 -11.77c-60.34,-32.34 -84.85,-115.52 -117.93,-181.47l-8.62 29.9c-1.33,3.65 -3.59,10.76 -5.05,14.54l-28.45 53.03c-185.73,-47.62 -377.53,-25.38 -541.82,108.36 32.82,136.5 49.96,330.24 140.52,431.89l92.25 187.69c2.5,11.83 6.86,88.38 5.76,107.17 -10.87,190.57 53.25,351.35 72.14,537.66 51.2,504.7 -102.29,469.27 -380.62,459.97 -149.96,-5 -267.21,21.34 -423.49,30.19 -130.76,7.45 -77.34,-38.91 -188.99,-36.47l-186.2 -12.46c-63.78,-3.66 -95.88,37.92 -192.41,57.92 -98.55,20.44 -116.05,-4.08 -198.06,4.81 -230.15,25.05 -350.78,180.94 -533.03,-20.93 -35.85,-39.79 -52.15,-36.38 -108.18,-53.43 -74.75,-22.71 -252.23,-177.91 -353.01,-228.66 -286.09,-144.12 -687.95,-241.36 -996.86,-327.48 -154.55,-43.1 -172.76,-115.05 -323.65,18.93 -103.57,91.93 -160.05,166.62 -96.48,293.36l-31.41 51.2c97,89.43 81.53,-10.9 117.39,124.68 144.15,-34.65 195.32,12.39 302.91,51.6l159.66 55.61c31.3,130.21 0.12,224.95 67.71,318.66 182.18,252.68 134.1,133.71 461.22,314.76l47.78 19.38c2.62,0.6 8.85,1.07 11.48,1.43 81.32,11.91 105.57,28.51 204.18,7.13 28.2,117.3 62.24,115.32 95.91,217.19 117.24,-28.17 131.03,3.1 237.07,-13.26 -0.66,-91.16 25.21,-66.06 1.55,-175.08 -96.47,-20.75 -110.76,31.66 -178.89,-52.93 -68.6,-85.14 -23.92,-113.57 -159.8,-84.11l-9.92 -41.26c53.8,-26.98 44.14,-21.16 72.66,-61.16 -173.84,41.78 -59.76,46.33 -170.95,106.57 33.95,-91.83 36.43,-64.29 -25.09,-157.4 -53.23,-80.54 -58.07,-77.01 -111.31,-137.4 73.61,-0.53 77.66,12.18 143.34,24.76 101.99,19.53 65.81,-3.38 163.4,-8.08 74.19,-3.5 403.54,127.92 500.45,160.54 86.97,29.25 101.56,90.47 182.34,133.54l27.44 12.7c101.41,-72.34 -64.7,78.2 18.36,-25.38 49.85,-62.14 25.8,-30.13 135.82,2.29 140.97,41.51 278.96,97.22 365.58,209.49 152.53,197.82 547.23,342.4 617.76,544.97 32.19,92.52 68.54,177.23 -12.98,221.47 85.59,78.91 274.1,126.93 307.3,188.24 -123.82,-31.77 -214.57,-41.99 -336.52,22.5 -57.06,30.17 -15.06,20.13 -81.38,56.09l19.25 -93.88c16.77,-57.33 21.75,-16.11 23.62,-91.18 -54.95,-46.55 -78.47,-27.93 -134.81,-67.38l-61.26 -43.72c-34.99,-16.23 -32.88,-5.95 -73.31,-24.07l-63.25 -40.48c-43.84,-27.66 -25.21,-17.15 -68.33,-32.24 -154.99,-54.3 -174.91,-164.47 -371.14,-229.68 -111.54,-37.1 -68.45,-4.6 -159.54,23.93 -73.94,23.22 -90.53,5.89 -167.11,22.47 61.88,52.4 63.87,16.1 118.91,64.74 72.13,63.8 13.91,57.65 74.44,108.38 30.25,25.35 194.49,32.36 252.82,47.31 -32.39,87.55 -47.04,52.99 -78.43,128.04l166.1 45.05c95.96,36.76 46.25,7.9 123.37,86.13 122.74,124.53 192.61,73.73 279.51,147.42 41.6,35.36 67.61,77.57 122.2,116.66 136.83,97.99 252.86,238.94 121.37,402.18 -90.14,111.86 -179.78,64.59 -315.13,58.04 -659.81,-32.16 -218.32,-303.68 -841.5,-408.63 -8.82,-1.51 -91.63,-16.59 -94.89,-17.59l-66.49 -35.18c-59.41,-34.81 -76.24,-32.96 -146.6,-48.15 -350.79,-75.81 -211.91,-102.62 -674.8,-105.77 -181.76,-1.21 -624.19,-49.54 -684.54,-27.87 -117.49,42.15 -78.05,30.25 -179.1,26.46 -140.73,-5.26 -59.52,8.68 -151.39,49.96 -62.53,28.11 -104.16,-0.21 -196.36,39.97 -113.8,49.61 5.89,49.39 -152.41,68.84 -131.99,16.28 -58.81,-1.02 -161.43,56.46 -86.19,48.18 -106.04,12.16 -89.13,121.91 -94.48,-39.53 -9.16,-32.21 -97.51,-42.06 -2.73,109.69 -33.68,97.16 -127.5,150.82 -176.06,100.76 -70.26,108.32 -265.57,277.56 -51.14,44.26 -53.52,103.51 -97.16,151.84l-56.23 88.84c-56.12,190.21 -143.28,381.94 -111.78,590.65zm17412.64 -5711.36c14.42,-48.33 21.73,-99.97 18.84,-156.15 -7.97,-154.6 -52.85,-244.77 -180.41,-231.64 -239.4,24.54 -414.2,211.17 -565.04,387.79l726.62 0zm-9291.2 -28.77c18.96,78.94 -4.54,9.01 35.54,56.95 123.4,-66.84 -25.56,-47.93 177.19,-243.64l234.01 -226.5c-94.68,-286.73 16.08,-24.01 -33.94,-232.09 -23.01,-95.81 -66.75,-159.19 -132.25,-186.62 -112.43,60.96 -15,78.52 -102.11,184.02 -44.53,53.94 -62.76,35.06 -107.59,180.61 -14.09,45.6 -77.53,439.5 -70.85,467.28zm-82.75 -2797.67c22.11,66.82 56.65,117.39 86,175.88 24.93,-72.9 -33.76,-138.68 -86,-175.88z"/>
   <path class="fil1 str0" d="M10947.7 4476.94l8071.18 0c1410.75,0 2564.99,1154.24 2564.99,2564.99l0 8071.18c0,1410.75 -1154.24,2564.99 -2564.99,2564.99l-8071.18 0c-1410.75,0 -2564.99,-1154.24 -2564.99,-2564.99l0 -8071.18c0,-1410.75 1154.24,-2564.99 2564.99,-2564.99zm0 1351.9c-664.54,0 -1213.09,548.55 -1213.09,1213.09l0 8071.18c0,664.54 548.55,1213.09 1213.09,1213.09l8071.18 0c664.54,0 1213.09,-548.55 1213.09,-1213.09l0 -8071.18c0,-664.54 -548.55,-1213.09 -1213.09,-1213.09l-8071.18 0z"/>
   <g>
    <path class="fil2" d="M17599.55 13915.87c-687.93,634.22 -1606.76,1021.78 -2616.22,1021.78 -2132.36,0 -3860.98,-1728.61 -3860.98,-3860.98 0,-1115.64 473.36,-2120.58 1229.99,-2825.43 272.12,2155.14 2070.17,4341.09 4758.84,5474.25 162.4,68.45 325.28,131.87 488.36,190.38z"/>
    <path class="fil2" d="M18458.34 12761.25c-161.49,332.51 -369.25,638.38 -615,909.17 -163.38,-58.58 -326.59,-122.14 -489.31,-190.71 -2674.63,-1127.25 -4467.91,-3296.3 -4754.46,-5440.49 318.99,-250.68 678.48,-452.17 1066.98,-593.09 348.31,2094.64 2119.78,4189.22 4731.9,5290.11 19.95,8.41 39.92,16.73 59.89,25z"/>
    <path class="fil2" d="M18828.02 11433.09c-33.08,361.33 -115.94,708.25 -241.65,1033.85 -2516.42,-1078.89 -4241.76,-3081.68 -4647.95,-5108.13 297.26,-83.37 609.03,-132.07 930.68,-141.41 563.61,1654.15 1981.25,3226.38 3958.92,4215.69z"/>
    <path class="fil3" d="M15203.97 7222.11c2027.51,114.25 3636.81,1792.74 3640.25,3848.03 -1761.42,-941.39 -3048.85,-2350.24 -3640.25,-3848.03z"/>
   </g>
   <path class="fil4" d="M25320.93 8498.23l0 5832.08 -880.85 0 0 -6639.96 1859.62 0c2193.28,0 3507.09,961.83 3507.09,3238.45 0,950.75 -282.31,1804.93 -976.07,2469.15 -713.67,683.26 -1632.43,932.35 -2603.99,932.35l-258.77 0 0 -807.9 268.08 0c716.05,0 1426.53,-162.48 1956.3,-671.55 525.07,-504.53 696.31,-1195.51 696.31,-1904.99 0,-1712.76 -943.65,-2447.65 -2607.58,-2447.65l-960.14 0zm6124.46 3689.3c17.63,400.24 118.52,804.84 401.2,1103.14 281.78,297.37 656.33,404.1 1058.45,404.1 529.2,0 995.69,-179.99 1411.04,-506.13l94.57 -74.25 0 850.29 -24.07 17.51c-478.84,348.23 -1077.61,456.82 -1658.56,456.82 -619.4,0 -1177.3,-183.91 -1594.86,-653.1 -445.84,-500.99 -579.98,-1171.74 -579.98,-1824.52 0,-673.34 175.52,-1304 631.43,-1810.76 420.09,-466.93 946.22,-704.13 1574.47,-704.13 570.93,0 1083.86,169.77 1459.13,612.24 395.15,465.89 513.86,1083.54 513.86,1679.06l0 449.75 -3286.68 0zm5162.38 2142.78l-863.79 0 0 -7012.62 863.79 0 0 7012.62zm1832.77 -5841.39c-146.43,0 -275.36,-51.24 -380.68,-153.08 -108.8,-105.2 -159.13,-236.28 -159.13,-386.72 0,-151.12 50.76,-283.29 158.77,-389.51 104.91,-103.15 233.81,-156.51 381.04,-156.51 150.39,0 281.83,51.53 390.01,156.18 109.16,105.6 160.67,238.81 160.67,389.84 0,148.9 -54.24,277.37 -160.33,381.7 -107.85,106.08 -239.28,158.09 -390.35,158.09zm423.36 5841.39l-863.79 0 0 -4775.12 863.79 0 0 4775.12zm2932.04 -969.37c25.82,-124.12 58.85,-246.82 101.94,-365.25l1251.52 -3440.51 914.43 0 -1903.69 4775.12 -811.32 0 -1809.78 -4775.12 944.45 0 1196.88 3424.13c43.07,123.24 83.85,251.72 115.56,381.63zm3442.41 -1173.41c17.62,400.24 118.5,804.84 401.19,1103.14 281.8,297.37 656.33,404.1 1058.47,404.1 529.2,0 995.68,-179.99 1411.02,-506.13l94.57 -74.25 0 850.29 -24.07 17.51c-478.84,348.23 -1077.59,456.82 -1658.55,456.82 -619.4,0 -1177.32,-183.91 -1594.87,-653.1 -445.84,-501 -579.98,-1171.74 -579.98,-1824.52 0,-673.34 175.53,-1303.99 631.44,-1810.76 420.07,-466.93 946.2,-704.13 1574.45,-704.13 570.92,0 1083.86,169.77 1459.13,612.24 395.16,465.9 513.88,1083.53 513.88,1679.06l0 449.75 -3286.68 0zm5162.37 -1878.01c96.59,-208.55 228.69,-396.91 408.56,-548.09 222.82,-187.29 479,-288.55 770.52,-288.55 149.5,0 327.42,11.47 467.47,67.89l36.61 14.75 0 930.78 -93.89 -71.54c-145.19,-110.64 -351.03,-137.1 -528.21,-137.1 -325.96,0 -566.56,164.73 -752.01,425.7 -241.96,340.51 -309.05,785.82 -309.05,1194.35l0 2432.59 -863.79 0 0 -4775.12 863.79 0 0 754.33zm3872.07 3952.18l-1842.37 -4706.52 954.7 0 1274.54 3624.33c14.32,40.68 25.5,84.91 36.58,126.61 5.37,20.16 10.66,40.35 15.9,60.53 15.67,-59.08 32.37,-117.92 48.88,-175.98l0.6 -2.14 1339.34 -3633.34 900.1 0 -2174.5 5483.52c-292.44,737.44 -786.51,1484.07 -1664.53,1484.07 -166.32,0 -342.64,-13.79 -502.69,-61.43l-41.78 -12.43 0 -794.45 77.27 26.25c134.42,45.68 279.57,79.2 422.17,79.2 408.74,0 644.54,-286.12 792.37,-636.6l363.42 -861.61zm-20422.68 -2823.07c-9.6,-323.26 -81.43,-658.27 -295.51,-909.82 -209.43,-246.06 -493.3,-338.1 -809.49,-338.1 -335.25,0 -619.93,119.59 -854.07,359.65 -240.37,246.47 -371.27,554.04 -428.51,888.27l2387.59 0zm13792.95 0c-9.6,-323.26 -81.43,-658.27 -295.51,-909.82 -209.43,-246.06 -493.3,-338.1 -809.49,-338.1 -335.27,0 -619.91,119.59 -854.07,359.65 -240.38,246.46 -371.26,554.05 -428.51,888.27l2387.59 0z"/>
   <g>
    <path class="fil5" d="M46336.9 6028.74c1.61,0 3.24,0 4.87,0 1.61,0 4.05,0.81 7.29,2.44 0,0 0.81,0.81 2.43,2.43 4.05,1.63 12.16,4.05 23.51,7.29 14.59,4.87 29.99,8.11 47.84,8.92 118.37,19.46 197.01,47.84 235.11,85.93 37.29,38.1 54.32,102.96 49.45,194.57l0 66.48 158.91 -7.29c98.1,-4.05 188.9,-9.72 270.78,-16.22 82.69,-9.72 130.51,-17.02 145.12,-21.07 1.61,-1.63 3.24,-2.44 4.85,-2.44 1.63,0 3.26,0.81 4.87,2.44 1.63,1.61 2.44,2.43 3.24,3.24 0.81,0.81 1.63,2.43 1.63,5.68 0,14.59 13.77,14.59 42.15,0 27.56,-12.16 70.53,-12.98 131.34,-2.44 26.75,4.87 50.26,7.29 70.53,7.29 19.46,0 30.81,-1.61 35.67,-4.85 3.24,-1.63 5.67,-2.44 7.29,-3.26 1.61,-0.8 3.24,-0.8 4.85,0.81 1.63,1.63 2.44,4.05 3.26,7.29 0.8,3.24 2.43,7.29 4.05,12.16 4.85,23.51 -13.79,35.67 -55.13,35.67 -8.92,1.63 -19.46,2.43 -30.81,2.43 -10.55,0 -21.9,0.81 -33.25,2.44 -18.64,1.61 -36.49,2.43 -51.89,4.05 -9.72,0 -18.64,0.81 -25.94,2.43 -24.32,0 -44.6,0 -62.42,0 -17.03,-1.61 -28.38,-4.87 -33.25,-8.92 -5.67,-14.59 -15.4,-20.26 -28.36,-17.02 -8.92,3.24 -13.79,12.16 -13.79,25.94 0,16.22 -17.03,25.14 -50.26,26.75 -34.86,1.63 -42.15,-4.05 -21.08,-17.02 33.25,-21.9 -74.59,-24.32 -323.47,-7.29 -68.11,4.85 -113.5,9.72 -137.82,14.59 -23.51,6.48 -34.05,13.77 -30.81,23.51 8.11,39.73 47.84,56.74 119.17,50.26 12.16,-1.63 34.86,-3.24 66.48,-4.87 17.03,-1.61 37.3,-3.24 59.18,-4.85 28.38,-1.63 58.37,-3.26 89.99,-4.87 41.35,-1.63 85.14,-3.24 131.34,-4.87 25.12,0 48.63,-0.81 70.53,-2.43 49.45,-1.63 87.56,-2.44 114.31,-2.44 41.34,0 64.04,1.63 68.9,4.87 4.87,3.24 0,8.92 -14.59,17.03 -12.16,8.11 -27.56,13.77 -44.6,18.64 -16.22,3.24 -29.99,6.48 -42.97,9.72 -3.24,0 -5.67,0 -7.29,0 -13.77,0 -24.32,1.63 -30.81,4.87 -6.48,3.24 -8.92,7.29 -7.29,11.35 3.24,12.98 -13.79,19.46 -51.89,19.46 -38.1,0 -66.48,3.24 -85.93,9.74 -20.27,5.67 -27.56,15.4 -21.08,28.38 1.63,1.61 2.44,3.24 1.63,5.67 -0.81,2.44 -3.24,4.05 -6.48,5.68 -6.5,1.61 -15.42,4.05 -28.38,7.29 -23.51,0 -42.15,1.61 -54.32,4.87 -9.74,0 -17.84,1.61 -24.32,4.85 -1.63,1.63 -2.44,2.44 -4.05,2.44 -1.63,1.61 -3.24,2.43 -4.87,2.43 -6.48,4.87 -13.77,9.74 -21.88,16.22 -8.92,4.87 -28.38,11.35 -56.76,19.46 -29.99,6.48 -63.24,10.53 -99.71,13.77l-130.53 12.16 -17.03 130.53c-3.24,28.38 -6.48,53.5 -11.35,76.21 0,6.48 -0.81,11.35 -2.43,16.22 -6.5,24.31 -12.16,35.66 -17.03,35.66 -4.87,0 -8.11,4.87 -8.92,14.6 -3.24,11.35 -4.85,22.7 -4.85,35.67 0,13.77 -2.44,27.56 -7.29,40.53 -3.26,13.79 -7.31,23.51 -12.16,28.38 -6.5,6.48 -11.35,22.7 -16.22,49.45 -4.87,19.46 -8.92,41.35 -12.16,66.48 0,8.11 -0.81,17.03 -2.44,26.77 -9.72,131.33 -29.18,189.7 -59.17,175.11 -4.87,-3.24 -8.92,-3.24 -12.16,0 -1.63,1.63 -2.44,3.24 -3.26,4.87 -0.8,1.61 -1.61,3.24 -1.61,4.85 -1.63,1.63 -2.43,3.26 -2.43,4.87 -0.81,33.25 -8.92,68.11 -23.51,104.59 -4.87,15.4 11.35,44.58 47.82,85.12 34.86,41.34 78.64,84.31 132.96,128.9 51.89,42.15 102.15,75.4 149.17,99.71 51.08,25.14 102.96,43.78 157.28,56.76 56.76,11.35 141.88,20.27 253.75,28.38 6.5,0 12.16,0.81 17.03,2.43 7.29,1.63 14.59,2.44 21.08,2.44 4.87,1.61 8.91,2.43 12.16,2.43 17.02,1.61 29.99,4.87 38.1,9.72 7.29,0.81 26.75,-0.8 56.74,-7.29 6.5,-1.61 12.16,-3.24 16.22,-4.85 24.32,-8.11 50.28,-17.84 78.64,-28.38 36.49,-14.6 66.48,-25.95 89.99,-33.25 27.56,-9.72 41.35,-12.96 42.97,-9.72 1.63,1.61 2.44,3.24 2.44,4.85 0,1.63 0,3.26 0,4.87 -3.24,1.63 -7.29,4.05 -11.35,6.5 -6.5,1.61 -18.66,8.11 -35.67,19.46 -4.87,1.61 -9.74,4.05 -14.6,7.29 -23.51,13.77 -51.87,30.81 -85.93,49.45 -31.62,19.46 -66.48,38.1 -103.76,57.56 -38.1,18.66 -68.92,33.25 -93.23,42.17 -18.66,8.11 -35.67,15.4 -49.46,21.88 -4.87,1.63 -8.91,3.24 -12.16,4.05 -15.4,9.74 -23.51,17.03 -23.51,21.88 0,4.87 3.26,14.6 9.74,30.82 7.29,17.02 16.22,35.67 25.94,54.32 38.11,79.44 46.21,152.41 25.95,218.89 -18.66,64.85 -59.18,98.91 -120.81,102.15 -16.2,0 -46.21,3.24 -90.79,9.72 -34.86,5.68 -70.53,12.98 -107.02,21.08 -8.92,1.63 -18.64,3.24 -28.38,4.87 -18.64,3.24 -38.1,7.29 -56.74,11.35 -28.38,4.87 -54.33,9.72 -78.64,14.59 -42.17,6.48 -72.97,9.74 -89.99,9.74 -4.87,0 -9.74,0.8 -14.6,2.43 -8.91,0 -18.64,1.63 -28.36,4.05 -6.5,1.63 -11.35,3.24 -16.22,4.87 -4.87,1.61 -8.92,3.24 -12.16,4.87 -4.87,4.85 -25.95,13.77 -64.05,25.94 -36.49,11.35 -81.07,23.51 -132.96,35.67 -72.96,19.46 -130.53,31.62 -173.5,35.67 -41.34,3.24 -89.99,2.43 -147.54,-2.44 -40.54,-4.05 -85.12,-6.48 -132.96,-6.48 -48.65,1.63 -89.99,4.05 -123.24,6.48 -56.74,9.74 -114.3,15.4 -171.06,17.03 -56.76,4.87 -104.58,5.68 -142.69,2.43 -38.1,-1.61 -56.74,-5.67 -56.74,-12.16 3.24,-6.48 12.98,-12.15 28.38,-18.64 17.83,-8.11 38.1,-15.4 61.61,-21.88 12.98,-3.24 26.75,-6.5 40.54,-11.35 11.35,-3.24 22.7,-6.5 35.66,-9.74 21.9,-8.11 41.35,-16.22 56.76,-23.51 3.24,0 5.68,-0.81 7.29,-2.43 16.22,-9.74 30.81,-17.03 45.41,-21.9 12.15,-4.05 21.07,-6.48 25.94,-6.48 3.24,0 7.29,-0.81 12.16,-2.43 4.87,-1.63 11.35,-4.05 21.07,-7.29 9.74,-3.26 19.47,-7.31 28.38,-12.16 9.74,-4.87 19.46,-8.92 28.38,-13.79 64.85,-28.38 141.06,-60 228.63,-94.86 86.75,-34.86 161.33,-62.42 222.95,-81.07 12.96,-4.87 24.32,-9.72 35.67,-14.59 14.59,-5.68 27.56,-11.35 40.53,-16.22 21.9,-11.35 34.06,-19.46 35.67,-23.51 1.63,-3.24 3.24,-5.68 4.87,-7.29 1.63,-1.63 2.43,-3.24 4.05,-4.87 4.87,-3.24 9.72,-2.43 14.59,2.43 4.87,3.26 14.6,2.44 28.38,-2.43 14.59,-3.24 29.19,-8.11 45.39,-14.59 17.03,-7.29 34.06,-14.6 49.46,-21.08 3.24,-1.63 6.48,-3.24 9.72,-4.87 12.98,-4.85 22.71,-8.11 30.81,-9.72 22.71,-8.92 29.19,-18.64 21.08,-28.38 -5.67,-12.16 -22.7,-19.46 -49.45,-21.08 -38.11,1.63 -36.49,-4.85 4.85,-19.46 13.79,-4.05 29.19,-8.91 44.6,-13.77 12.98,-3.24 25.14,-5.68 35.67,-7.29 3.24,-1.63 6.48,-2.44 9.74,-2.44 12.96,-3.24 26.75,-5.67 42.97,-7.29 14.59,-4.87 26.75,-7.29 38.1,-8.91 4.87,-1.63 8.92,-2.44 13.77,-2.44 4.87,0 9.74,-0.81 14.6,-2.43 3.24,-1.63 6.48,-2.44 9.72,-2.44 4.87,0 7.29,-0.8 8.92,-2.43 3.24,0 5.67,-0.81 6.48,-1.63 0.81,-0.8 1.63,-1.61 3.24,-3.24 1.63,-1.61 3.26,-3.24 3.26,-5.67 0.8,-2.44 1.61,-4.87 1.61,-6.5 0,-1.61 -1.61,-3.24 -5.67,-5.67 -4.05,-2.44 -11.36,-4.87 -20.27,-8.11 -17.84,-4.87 -38.11,-8.92 -61.63,-12.16 -27.56,-4.87 -59.98,-12.98 -98.1,-25.94 -38.91,-14.6 -77.01,-30.01 -113.5,-47.84 -84.31,-42.15 -166.19,-103.78 -247.25,-182.42 -77.84,-77.83 -167.83,-186.46 -270.78,-325.91 -50.28,-69.72 -101.35,-139.44 -151.61,-208.34 -25.94,-33.25 -51.08,-67.29 -76.2,-102.15 -23.51,-30.81 -38.11,-52.7 -42.97,-66.48 -4.87,-16.22 -3.24,-33.25 4.85,-52.7 8.11,-20.27 24.32,-40.54 50.28,-59.18 25.12,-17.83 72.96,-41.34 144.3,-71.35 141.06,-53.5 226.19,-23.51 254.56,89.99 8.92,38.11 30.81,88.38 64.05,149.99 31.6,63.24 65.66,120 102.14,171.07 34.87,51.87 59.18,78.63 73.79,78.63 4.05,0 7.29,-10.53 8.91,-31.6 1.63,-18.66 2.44,-42.17 2.44,-70.53 -3.24,-32.43 -4.87,-78.64 -4.87,-140.27 -1.63,-62.42 -3.24,-125.66 -6.48,-190.51 0,-64.87 -2.44,-119.98 -7.31,-166.2 -3.24,-47.02 -6.48,-74.59 -9.72,-80.25 -9.74,-16.22 -42.97,-20.27 -99.72,-12.16 -36.47,4.87 -89.99,10.53 -161.32,16.22 -71.35,4.87 -139.45,9.72 -204.3,14.59 -25.14,1.63 -47.84,2.43 -66.48,2.43 -31.62,1.63 -54.32,2.44 -66.48,2.44 -64.87,-4.87 -118.37,-17.03 -158.91,-35.67 -41.34,-20.27 -62.42,-43.78 -62.42,-68.92 0,-12.96 -2.43,-23.51 -6.48,-33.23 -3.24,-9.74 -7.29,-16.22 -12.16,-18.64 -4.87,-4.87 -8.92,-23.51 -12.16,-55.13 -3.24,-31.62 -4.87,-68.92 -4.87,-111.89 0,-42.15 1.63,-80.25 4.87,-113.5 3.24,-34.86 7.29,-57.56 12.16,-68.9 3.24,-4.87 6.48,-8.11 9.72,-10.53 3.26,-2.44 5.68,-4.87 8.92,-6.5 8.11,0 17.84,3.24 29.19,9.74 28.36,14.59 153.23,21.88 374.54,23.51 90.8,0 161.33,0 211.6,0 51.08,-3.24 86.75,-4.87 107.02,-6.5 18.64,-4.85 29.99,-10.53 33.23,-17.02 3.24,-14.6 1.63,-38.91 -4.85,-73.77 -4.87,-36.49 -13.79,-69.73 -28.38,-99.72 -1.63,-9.74 0,-19.46 4.87,-30.81 8.09,-9.74 17.02,-17.03 28.36,-23.51 9.74,-8.11 20.27,-11.35 33.25,-9.74zm-116.74 306.45c-23.51,0 -44.6,0.81 -64.05,2.44 -17.03,3.24 -27.56,7.29 -30.81,12.15 -1.63,1.63 -0.81,3.26 2.43,4.05 3.24,1.63 8.92,3.26 17.03,4.87 12.16,3.24 30.81,4.87 54.32,4.87 51.08,0 74.59,5.67 71.35,17.03 -1.63,4.85 -1.63,8.91 0,13.77 1.61,1.63 4.05,3.24 7.29,4.05 3.24,0.81 7.29,0.81 11.35,0.81 17.83,0 25.14,-10.55 21.88,-30.81 0,-12.98 -7.29,-21.08 -21.88,-25.95 -12.16,-4.85 -34.86,-7.29 -68.9,-7.29zm223.76 999.61c0,0 -0.81,1.63 -1.63,4.87 -0.81,3.24 -0.81,7.29 -0.81,12.16 0,9.72 0.81,16.22 2.44,21.07 1.61,1.63 2.43,3.26 3.24,4.05 0.8,0.81 2.43,0 4.05,-1.61 3.24,-3.24 4.85,-8.11 4.85,-13.79 0,-3.24 -0.8,-6.48 -1.61,-9.72 -0.81,-3.24 -1.63,-6.5 -3.24,-9.74 -1.63,-8.11 -4.05,-9.72 -7.29,-7.29zm-175.94 389.96c0,1.61 8.11,12.96 23.51,35.67 17.84,20.26 38.11,44.58 62.42,71.33 23.51,25.14 44.6,48.65 64.05,71.35 21.9,20.27 34.05,30.81 35.67,30.81 0,0 0,0 0,0 0,0 0,0 0,0 0,0 0,0 0.81,0 0.81,0 1.61,-0.81 1.61,-1.61 0,-0.81 0,-1.63 0,-2.44 0,-0.8 0,-0.8 0,-0.8 0.81,-1.63 1.63,-3.26 1.63,-4.87 0,-1.63 0,-3.24 0,-4.87 0,-4.87 -8.92,-17.83 -28.38,-40.54 -17.02,-20.26 -38.91,-42.97 -64.04,-68.9 -23.51,-23.51 -44.6,-43.78 -64.05,-61.61 -18.64,-15.4 -29.99,-23.51 -33.25,-23.51zm225.39 227.81c-10.53,0 -17.03,0.8 -18.64,2.43 0,1.61 6.48,6.48 18.64,14.59 8.11,4.87 17.03,8.11 26.75,11.35 5.68,1.63 11.35,3.24 15.4,4.05 4.05,0.81 7.29,0.81 10.53,0.81 12.98,0 18.66,-0.81 18.66,-2.43 0,-3.26 -5.68,-8.11 -18.66,-13.79 -8.09,-4.87 -17.02,-8.92 -25.94,-12.16 -9.72,-3.24 -18.64,-4.85 -26.75,-4.85zm-44.6 249.7c8.92,0 6.5,5.67 -9.72,16.22 -6.5,4.85 -14.6,9.72 -23.51,14.59 -3.24,1.63 -6.5,2.43 -9.74,2.43 -3.24,1.63 -6.48,2.44 -9.72,2.44 -10.55,0 -8.11,-6.5 7.29,-19.46 4.87,-1.63 9.72,-4.05 14.59,-7.29 3.24,-0.81 6.48,-2.44 11.35,-4.05 8.11,-3.26 14.6,-4.87 19.46,-4.87z"/>
    <path class="fil5" d="M48232.35 6076.58c29.19,0 60.81,6.48 95.67,18.64 23.51,8.11 47.84,14.6 72.96,19.46 3.26,0 5.68,0.81 7.31,2.44 22.7,4.05 40.53,6.48 55.13,6.48 33.23,0 71.33,21.9 115.93,64.05l66.48 66.48 710.19 2.43c270.78,0 461.29,2.44 569.92,7.29 107.83,3.26 164.58,9.74 171.07,19.46 16.22,8.92 22.7,16.22 19.46,21.08 -1.63,3.24 -16.22,4.87 -42.97,4.87 -16.22,1.61 -30.01,2.43 -42.97,2.43 -12.16,-1.61 -22.7,-2.43 -30.81,-2.43 -4.87,-3.24 -23.51,-4.87 -56.76,-4.87 -29.99,-1.63 -66.48,-2.43 -109.45,-2.43 -41.34,-3.26 -78.64,-5.68 -111.87,-7.31 -4.87,0 -8.92,-0.8 -13.79,-2.43 -25.14,-3.24 -41.34,-6.48 -47.84,-8.92 -17.02,-11.35 -21.07,-9.72 -11.35,4.05 13.79,17.84 -17.83,24.32 -95.66,19.46 -30.01,-3.24 -61.63,-3.24 -94.86,0 -31.62,1.63 -55.94,4.87 -73.77,9.74 -38.91,8.92 -68.92,5.67 -87.56,-9.74 -3.24,-3.24 -6.48,-5.67 -9.74,-7.29 -3.24,-1.61 -6.48,-2.43 -8.91,-2.43 -4.87,0 -7.29,2.43 -7.29,7.29 0,4.87 -17.03,10.53 -50.28,16.22 -31.62,8.11 -66.48,14.59 -104.58,19.46 -38.1,4.87 -70.53,7.29 -97.28,7.29 -1.63,0 -7.29,-0.81 -16.22,-2.43 -9.74,0 -21.88,-0.81 -35.67,-2.44 -25.94,0 -54.32,-1.61 -85.93,-4.85 -6.48,0 -12.16,0 -18.64,0 -36.49,-1.63 -65.66,-2.44 -88.38,-2.44 -18.64,0 -23.51,1.63 -13.77,4.87 10.53,3.24 21.07,7.29 30.81,12.16 1.63,1.61 3.24,1.61 4.87,1.61 8.11,6.5 12.16,11.35 13.77,14.6 21.08,23.51 299.97,40.53 839.09,50.26 33.25,0 51.89,1.61 56.76,4.05 1.61,1.61 0.8,4.87 -2.44,8.92 -3.24,4.04 -9.72,8.91 -19.46,15.4 -25.12,18.64 -27.56,28.36 -6.48,28.36 18.64,-1.61 15.4,6.5 -9.74,23.51 -11.35,8.11 -30.81,13.79 -59.18,17.03 -28.36,4.87 -59.98,7.29 -93.23,7.29 -77.01,-3.24 -115.93,4.05 -115.93,23.51 0,4.87 -1.63,9.74 -4.87,13.79 -1.61,1.61 -3.24,2.43 -4.87,2.43 -1.61,0 -3.24,-0.81 -4.85,-2.43 -4.87,-3.26 -15.4,-3.26 -33.25,0 -17.03,0 -36.49,2.43 -56.74,7.29 -1.63,1.61 -4.05,2.43 -7.31,2.43 -47.02,9.74 -93.23,17.84 -137.81,23.51 -43.78,6.5 -106.21,12.16 -184.85,17.03 -192.14,13.77 -295.92,29.99 -313.75,47.02 -1.63,4.87 -4.05,15.4 -7.29,31.62 0,15.4 0,34.05 0,54.32 0,8.11 0,17.83 0,30.81 -1.63,18.64 -2.44,42.97 -2.44,71.35 0,44.58 0,91.6 0,142.68 -1.61,61.63 -0.81,106.21 2.44,132.97 3.24,25.12 9.72,38.1 19.46,38.1 17.02,0 17.02,6.48 0,21.07 -21.08,20.27 -25.95,34.06 -14.6,40.54 12.98,8.11 45.41,10.53 97.3,9.74 66.48,0 92.42,-5.68 78.64,-17.03 -20.27,-12.98 -17.84,-17.84 9.72,-16.22 28.38,0 32.43,-5.67 11.35,-17.03 -56.74,-33.23 25.95,-39.71 247.27,-18.64l232.68 21.08 0 49.45c0,12.98 1.61,25.14 4.85,35.67 0,1.63 0,3.24 0,4.87 1.63,1.61 2.44,4.05 2.44,7.29 3.24,8.11 7.29,14.59 12.16,18.64 7.29,9.74 14.59,30.01 21.07,60 6.5,29.99 10.55,62.42 12.16,97.28 0.81,33.25 0,60 -4.87,80.27 -14.59,76.2 -70.53,91.6 -168.61,45.39 -3.26,-1.63 -5.68,-2.43 -7.31,-2.43 -25.12,-9.74 -53.5,-17.84 -83.49,-25.95 -33.25,-9.72 -64.05,-15.4 -92.43,-17.02 -86.75,-7.31 -168.63,-11.35 -244.83,-11.35 -75.4,0 -119.18,4.04 -130.53,11.35 -4.87,4.85 -8.11,32.42 -9.74,81.07 -2.43,49.45 -4.04,106.21 -4.04,171.06 -1.63,63.24 -1.63,120.79 0,173.5 0,51.89 1.61,85.12 4.04,99.72 3.26,9.72 21.9,14.59 55.13,16.2 36.49,0 98.91,-2.43 187.29,-6.48 66.48,-3.24 125.66,-5.67 175.92,-7.29 21.88,-1.63 40.53,-2.43 54.32,-2.43 21.08,-1.63 34.05,-2.44 40.54,-2.44 290.24,4.87 434.54,14.59 434.54,28.38 0,1.63 0,3.24 -0.81,4.87 -0.81,1.61 -1.63,3.24 -3.24,4.85 -1.63,1.63 -4.05,2.44 -6.5,3.26 -2.43,0.8 -4.85,1.61 -8.11,1.61 -1.61,0 -3.24,0 -5.67,0.81 -2.43,0.81 -4.87,2.43 -6.48,4.05 -4.87,4.05 -6.5,8.92 -6.5,13.77 0,4.87 4.05,8.11 13.79,9.74 9.72,0 21.07,-0.81 33.23,-2.43 14.59,-3.26 28.38,-3.26 42.97,0 13.79,1.61 25.95,4.85 35.67,9.72 26.75,13.79 28.38,21.08 4.87,21.08 -6.48,1.61 -2.43,4.87 11.35,9.72 11.35,3.24 25.94,6.5 42.97,8.92 9.74,3.24 18.64,5.68 28.38,7.29l111.87 24.32 -121.61 6.48c-18.64,1.63 -38.91,2.44 -61.61,2.44 -18.64,0 -39.73,0.8 -61.61,2.43 -46.21,1.63 -87.56,2.43 -125.66,2.43 -104.59,1.63 -206.73,6.5 -306.45,14.6 -99.72,6.48 -184.03,13.77 -252.14,23.51 -66.48,9.72 -99.71,18.64 -99.71,28.36 0,4.87 42.97,7.31 128.9,7.31 78.64,1.61 175.11,0.8 289.42,-2.44 9.74,0 18.64,0 28.38,0 304.01,-8.11 449.13,-4.87 434.54,9.74 -3.24,4.87 -2.43,10.53 2.43,18.64 3.24,8.11 9.74,14.59 19.46,19.46 30.01,13.79 23.51,20.27 -19.46,18.64 -13.77,0 -25.94,-2.43 -35.67,-7.29 -4.85,-1.61 -8.11,-4.05 -10.53,-7.29 -2.43,-2.43 -3.24,-4.87 -3.24,-6.48 0,-17.84 -5.68,-17.03 -17.03,2.43 -11.35,17.03 -33.23,21.08 -66.48,11.35 -13.77,-3.24 -28.38,-4.05 -42.97,-2.43 -10.53,0 -20.27,2.43 -28.38,7.29 -15.4,12.98 -42.15,23.51 -80.25,33.23 -34.86,9.74 -70.53,15.4 -107.02,17.03 -16.22,0 -28.38,2.43 -38.1,6.48 -9.74,4.87 -14.59,9.74 -14.59,14.6 -3.26,14.59 -51.89,24.31 -146.75,30.81 -24.32,1.61 -47.02,3.24 -68.9,4.87 -19.46,1.61 -37.3,3.24 -55.13,4.85 -18.66,1.63 -35.67,3.26 -49.46,4.87 -16.22,1.63 -27.56,3.24 -35.67,4.87 -3.24,0 -7.29,0.81 -12.15,1.61 -12.16,3.26 -29.19,5.68 -49.46,7.31 -12.98,1.61 -25.12,3.24 -35.67,4.85 -14.59,1.63 -27.56,4.05 -40.53,7.29 -142.69,18.66 -233.49,51.08 -273.22,97.3 -47.82,49.45 -52.69,76.2 -16.22,81.07 13.79,4.05 17.84,21.08 11.36,49.45l-9.74 45.41 -23.51 -50.26c-1.63,-3.26 -2.43,-6.5 -2.43,-8.92 -4.87,-12.98 -8.92,-26.75 -11.35,-40.54 -4.87,-17.83 -7.31,-33.23 -7.31,-47.84 0,-13.77 -1.61,-25.12 -4.85,-33.23 -1.63,-3.24 -4.05,-5.68 -8.11,-7.29 -4.05,-1.63 -9.74,-1.63 -15.4,0 -11.35,0 -30.81,1.61 -60,4.87 -25.14,3.24 -51.89,9.72 -80.27,19.46 -28.36,5.67 -52.69,13.77 -71.33,23.51 -106.21,49.45 -200.25,34.05 -282.94,-45.41 -38.1,-39.73 -69.72,-89.99 -94.86,-151.6 -25.14,-60 -33.25,-106.21 -23.51,-137.82 18.64,-51.08 187.27,-107.83 505.89,-171.06 11.35,-3.26 21.08,-8.11 30.81,-14.6 8.11,-7.29 12.16,-14.59 12.16,-21.07 0,-9.74 0.81,-15.4 4.05,-17.03 1.63,-0.81 3.24,-2.43 4.87,-3.24 1.61,-0.81 4.05,0 7.29,1.61 3.24,1.63 5.67,1.63 7.29,0.81 1.63,-0.81 3.24,-1.61 4.87,-3.24 1.61,-3.24 2.43,-6.48 3.24,-9.72 0.81,-3.26 0.81,-7.31 -0.81,-12.16 0,-12.16 -1.61,-20.27 -4.87,-23.51 -1.61,-3.24 -3.24,-4.87 -4.85,-5.68 -1.63,-0.81 -3.26,-0.81 -4.87,0.81 -4.87,0 -8.11,-13.79 -9.74,-40.54 0,-8.91 0,-18.64 0,-28.36 -1.61,-23.51 -1.61,-50.28 0,-80.27 0,-46.21 -0.8,-83.51 -2.43,-111.87 -1.63,-30.01 -4.05,-45.41 -8.92,-45.41 -4.87,0 -8.11,-9.72 -9.72,-28.38 -1.63,-17.02 -2.44,-38.91 -2.44,-64.04 0,-26.75 2.44,-49.46 7.29,-66.48 4.87,-17.84 9.74,-25.95 13.79,-25.95 14.59,0 19.46,-2.43 14.59,-7.29 -3.24,-3.24 -12.16,-7.29 -25.94,-12.16 -14.59,-4.87 -31.62,-8.91 -52.7,-11.35 -64.85,-9.72 -158.89,-8.92 -282.13,2.44 -84.31,5.67 -149.17,10.53 -195.38,13.77 -45.39,1.63 -77.83,1.63 -97.28,0 -20.27,-1.63 -35.67,-7.29 -44.6,-16.22 -16.22,-9.72 -23.51,-17.03 -21.88,-21.88 1.61,-3.24 12.98,-4.87 33.23,-4.87 24.32,-3.24 42.17,-4.87 55.13,-6.48 13.79,0 24.32,-1.63 30.81,-4.87 4.87,-1.63 9.74,-4.05 13.79,-7.29 1.63,-1.63 3.24,-3.24 4.87,-4.87 8.11,-3.24 17.02,-4.87 25.94,-4.87 9.74,0 19.46,1.63 29.19,4.87 21.88,8.11 28.36,4.87 18.64,-9.74 -9.74,-13.77 6.48,-21.88 47.84,-23.51 17.02,0 34.05,-1.61 49.45,-4.85 1.63,0 3.24,0 4.87,0 18.64,-3.24 34.05,-7.29 45.39,-11.35 30.01,-14.6 23.51,-17.84 -19.46,-9.74 -184.85,26.75 -272.39,30.81 -261.04,11.35 4.87,-4.05 11.35,-8.92 18.64,-13.77 11.35,-4.87 20.27,-7.29 26.75,-7.29 8.92,0 18.64,-0.81 28.38,-2.44 8.11,-1.61 13.79,-4.87 18.64,-9.72 1.63,-1.63 3.24,-2.44 4.87,-4.05 1.63,-1.63 3.24,-2.44 4.87,-2.44 6.48,-3.24 14.59,-5.67 23.51,-7.29 4.87,-1.61 11.35,-3.24 19.46,-4.87 5.67,-1.61 14.59,-3.24 25.94,-4.85 6.5,-1.63 13.79,-2.44 23.51,-2.44 16.22,-1.61 34.86,-4.05 56.76,-7.29 44.58,-5.67 80.25,-11.35 107,-16.22 4.87,-1.61 9.74,-2.43 14.6,-2.43 26.75,-3.24 47.82,-7.29 61.61,-12.16 16.22,-3.24 30.81,-7.29 45.39,-13.79 33.25,-14.59 49.46,-33.23 49.46,-57.56 0,-8.92 2.43,-17.83 7.29,-25.94 3.24,-3.24 6.48,-5.68 9.72,-7.29 3.26,-0.81 7.31,-1.63 11.36,-1.63 9.72,0 17.02,-4.87 21.88,-14.59 4.87,-8.11 6.48,-17.03 4.87,-25.95 -1.63,-9.72 -7.29,-16.2 -17.03,-19.46 -18.64,-3.24 -34.86,-92.42 -47.02,-268.34 -3.24,-85.12 -14.59,-138.64 -33.23,-158.91 -21.08,-21.88 -68.92,-31.62 -145.12,-28.36 -74.59,1.61 -130.53,-8.11 -168.63,-28.38 -38.11,-22.7 -72.16,-64.05 -102.15,-124.03 -14.6,-31.62 -24.32,-60 -30.82,-85.14 -4.85,-28.38 -6.48,-59.98 -4.85,-94.86 3.24,-29.18 5.67,-52.69 7.29,-71.33 1.61,-4.87 2.43,-9.74 2.43,-14.6 3.24,-11.35 4.87,-17.83 6.5,-21.07 3.24,-3.24 15.4,-3.24 35.67,0 1.61,0 4.04,0 7.29,0 21.07,1.61 44.58,5.67 71.33,11.35 106.21,19.46 183.23,20.27 230.25,2.43 47.82,-13.77 51.87,-42.15 12.16,-85.12 -26.77,-28.38 -30.82,-51.89 -12.16,-68.9 19.46,-17.84 51.08,-25.95 94.84,-25.95zm1520.1 417.53c4.85,0 9.72,0.8 13.77,1.61 3.24,0.81 6.5,1.63 8.11,3.24 3.24,1.63 4.87,3.26 5.68,4.87 0.8,1.63 0.8,4.05 -0.81,7.29 -4.87,4.87 -10.53,9.74 -17.03,13.79 -6.48,3.24 -12.96,4.87 -21.07,4.87 -6.5,0 -12.98,-1.63 -19.46,-4.87 -3.26,-3.24 -5.68,-5.68 -6.5,-8.11 -1.61,-2.44 -2.43,-4.05 -2.43,-5.68 0,-4.85 3.24,-8.91 11.35,-12.16 8.11,-3.24 17.83,-4.85 28.38,-4.85zm-465.36 93.23c9.74,0 17.84,1.61 23.51,4.05 11.36,6.48 3.26,9.72 -23.51,9.72 -23.51,0 -30.81,-3.24 -21.07,-9.72 8.11,-2.44 14.59,-4.05 21.07,-4.05zm-1147.16 778.28c-6.48,0 -12.98,0.81 -21.08,2.44 -14.59,6.48 -10.53,10.53 11.36,12.16 9.72,0 17.02,-0.81 21.88,-2.44 1.63,-1.61 2.43,-2.43 3.24,-3.24 0.81,-0.81 0.81,-2.43 -0.81,-4.05 -1.61,-1.63 -4.05,-2.43 -6.48,-3.24 -2.43,-0.81 -4.87,-1.63 -8.11,-1.63zm327.54 169.44c-5.68,0.81 -10.55,6.48 -13.79,16.22 -3.24,8.11 -4.05,17.03 -2.43,25.94 0,11.35 0.8,35.67 2.43,73.77 1.63,38.11 2.43,81.08 2.43,128.1 1.63,179.16 14.6,241.59 40.54,188.09 4.05,-9.74 6.48,-19.46 6.48,-28.38 1.63,-4.87 2.44,-9.72 1.63,-13.77 -0.81,-3.26 -2.43,-6.5 -4.05,-8.11 -2.43,-6.5 -5.68,-29.19 -8.92,-68.92 0,-17.02 0,-36.49 0,-56.74 -1.61,-23.51 -2.43,-50.28 -2.43,-78.64 0,-131.34 -7.29,-190.53 -21.88,-177.55zm95.66 465.35c-1.61,-1.61 -2.43,-2.43 -2.43,-2.43 0,0 -0.81,0.81 -2.44,2.43 -1.61,0 -3.24,1.63 -4.85,4.87 -1.63,1.63 -3.26,3.24 -4.87,4.05 -4.87,6.48 -8.11,14.59 -9.74,24.32 0,3.24 0,6.48 0,8.92 0,3.24 0.81,5.67 2.44,7.29 3.24,4.85 3.24,8.91 0,12.16 -1.63,1.61 -2.44,2.43 -3.24,3.24 -0.81,0.81 -3.26,1.61 -5.68,1.61 -1.63,0 -4.87,-0.8 -8.92,-2.43 -4.05,-1.63 -7.29,-4.05 -10.53,-7.29 -8.11,-6.5 -13.79,-14.59 -18.64,-23.51 -14.6,-28.38 -21.08,-23.51 -19.46,16.22 0,16.22 2.43,27.56 7.29,35.67 6.48,6.48 17.83,8.91 33.23,7.29 17.84,0 28.38,-4.05 33.25,-12.16 8.11,-8.92 12.98,-24.32 14.59,-44.6 3.24,-22.7 3.24,-34.05 0,-35.67zm619.39 87.56l-71.35 2.43 66.48 12.16c6.5,1.63 12.98,3.24 19.46,4.87 9.74,1.63 17.84,3.24 25.95,6.48 8.11,1.63 13.77,3.26 17.02,4.87 3.26,0 4.87,0 6.5,0 0,0 0,0 0,0 0,0 0,0 0,0 0,0 0.81,0 1.61,0 0.81,0 0.81,0 0.81,-0.81 0,-0.8 0,-1.61 0,-2.43 0,-0.81 0,-1.63 0,-1.63 1.63,-1.61 2.44,-3.24 2.44,-5.67 0,-2.44 0,-4.05 0,-5.68 0,-4.87 -7.31,-8.91 -21.08,-12.16 -12.98,-3.24 -28.38,-4.05 -47.84,-2.43zm793.7 109.45c26.75,0 47.82,1.63 64.04,4.87 15.4,3.24 23.51,7.29 23.51,11.35 0,9.72 -11.35,15.4 -35.67,17.03 -25.12,0 -55.93,-5.68 -92.42,-17.03 -39.73,-10.53 -25.94,-16.22 40.54,-16.22z"/>
    <path class="fil5" d="M52545.36 6021.45c3.24,0 3.24,4.05 0,12.16 -1.63,8.11 -5.68,16.22 -13.77,25.94 -6.5,11.36 -14.6,21.9 -24.32,30.82 -8.92,11.35 -17.03,20.26 -23.51,26.75 -20.27,13.77 -16.22,2.43 12.16,-34.06 9.72,-12.15 18.64,-24.31 28.36,-34.86 1.63,-3.24 3.26,-5.67 4.87,-7.29 1.63,-3.24 4.05,-5.67 7.29,-7.29 4.87,-8.11 7.29,-12.16 8.92,-12.16zm-232.68 124.05c1.63,3.24 -21.07,30.81 -68.9,82.68 -33.25,33.25 -64.87,68.11 -94.86,104.59 -28.38,33.23 -50.26,60.8 -66.48,83.49 -1.61,1.63 -3.24,3.26 -4.87,4.87 -9.72,13.79 -18.64,26.75 -28.36,37.3 -6.5,8.11 -12.16,15.4 -16.22,21.88 -14.6,18.64 -25.95,31.62 -33.25,38.1 -6.48,7.31 -14.59,19.46 -24.32,35.67 -8.91,13.79 -18.64,29.19 -28.36,44.6 -8.11,14.59 -16.22,26.75 -25.95,38.1 -9.72,11.35 -18.64,17.03 -25.94,17.03 -6.48,1.61 -9.74,-2.44 -9.74,-12.16 0,-8.11 17.03,-34.05 51.89,-78.64 27.56,-36.49 60,-76.21 97.28,-120.79 9.74,-11.35 18.66,-21.9 26.75,-30.81 10.55,-12.98 21.9,-25.14 33.25,-38.11 36.49,-42.97 72.16,-83.49 107.02,-121.61 42.15,-47.02 75.39,-80.25 99.71,-99.71 7.29,-4.05 11.35,-6.48 11.35,-6.48zm-1997.6 56.74c29.19,-3.24 51.89,1.63 68.9,14.59 17.84,8.92 36.49,30.81 57.57,64.05 18.64,33.25 46.21,83.51 82.69,151.6 3.24,4.87 5.67,9.74 7.29,14.6 23.51,45.39 47.84,89.99 71.35,132.96 18.64,36.47 34.86,64.85 47.82,85.12 0.81,4.87 3.26,9.72 6.5,14.59 29.99,51.89 68.9,126.48 116.74,222.95 47.02,94.86 91.62,189.71 132.96,282.94 42.97,94.86 71.35,163.76 85.12,206.73 29.19,89.99 51.89,174.31 68.92,251.32 17.83,76.21 25.12,120.79 21.88,132.96 -1.61,3.26 -1.61,9.74 0,19.46 3.24,8.11 7.29,16.22 13.79,25.95 9.72,14.59 18.64,18.64 25.94,14.59 6.48,-6.48 17.03,-27.56 31.62,-62.42 4.05,-7.29 8.92,-16.22 13.77,-25.94 6.5,-12.16 12.98,-24.32 19.46,-35.67 8.92,-18.66 17.84,-32.43 25.95,-40.54 6.48,-5.67 11.35,-13.77 16.22,-23.51 4.85,-8.11 7.29,-13.77 7.29,-18.64 0,-8.11 10.53,-30.81 30.81,-68.92 6.48,-11.35 13.77,-24.31 21.88,-38.1 15.4,-28.38 33.25,-59.18 51.89,-92.42 16.22,-25.95 29.99,-49.46 42.97,-71.35 12.16,-19.46 23.51,-36.49 33.25,-52.7 23.51,-36.47 38.91,-55.93 44.58,-59.18 0,0 0.81,-0.8 2.44,-2.43 3.24,-1.63 5.67,-4.05 7.29,-7.29 1.61,-3.24 3.24,-5.68 4.05,-8.11 0.81,-2.43 0.81,-4.05 0.81,-5.68 0,-8.09 12.96,-31.6 38.1,-71.33 9.72,-16.22 19.46,-32.43 30.81,-50.28 17.03,-28.36 36.49,-57.56 56.76,-87.55 33.23,-51.08 64.04,-94.86 93.23,-132.96 26.75,-39.73 44.58,-62.42 54.32,-68.92 1.61,-1.61 3.24,-3.24 4.87,-4.85 4.85,-3.26 8.91,-7.31 11.35,-12.16 4.87,-7.29 7.29,-14.6 7.29,-21.08 1.61,-14.59 10.53,-30.81 25.94,-49.45 14.6,-19.46 30.81,-35.67 47.84,-50.28 19.46,-12.96 31.62,-16.2 38.1,-9.72 11.35,12.98 -4.85,40.54 -47.82,83.51 -18.66,18.64 -34.06,36.47 -44.6,51.87 -12.98,14.6 -19.46,23.51 -19.46,26.77 0,4.05 -8.92,23.51 -28.38,56.74 -11.35,15.4 -21.07,31.62 -30.81,47.02 -12.98,19.46 -25.14,38.1 -38.1,57.56 -23.51,38.11 -47.02,71.35 -68.92,99.72 -20.27,29.99 -32.42,44.6 -35.67,44.6 -4.85,0 -8.11,2.43 -8.91,7.29 -1.63,1.61 -3.24,4.05 -4.05,7.29 -0.81,3.24 -0.81,6.48 -0.81,9.72 0,4.87 -4.87,17.03 -14.59,38.11 -9.74,18.64 -21.08,38.91 -35.67,61.61 -12.98,18.64 -22.7,36.49 -30.81,51.89 -1.63,3.24 -3.26,5.67 -4.87,7.29 -9.74,16.22 -13.79,25.12 -13.79,28.38 0,1.61 -7.29,15.4 -21.88,40.53 -13.79,25.14 -31.62,55.13 -51.89,89.99 -21.07,31.62 -37.29,60.81 -50.26,85.93 0,1.63 -0.81,3.26 -2.43,4.87 -13.79,25.14 -21.08,41.35 -21.08,49.46 0,4.85 -2.43,12.96 -7.29,23.51 -4.87,11.35 -11.35,23.51 -18.64,35.66 -6.5,8.11 -12.98,18.66 -19.46,30.82 -3.26,6.48 -6.5,12.96 -8.92,19.46 -4.87,9.72 -9.74,18.64 -14.59,28.36 -4.87,11.35 -9.74,21.08 -14.6,30.82 -13.77,34.86 -20.27,55.11 -18.64,59.17 0,4.87 9.74,0.81 28.38,-11.35 23.51,-17.83 34.05,-36.47 30.81,-57.56 -3.24,-8.92 -2.43,-18.64 2.43,-28.38 4.87,-10.53 12.16,-19.46 21.08,-25.94 8.11,-6.48 21.88,-23.51 40.54,-51.89 17.83,-27.56 35.67,-57.56 55.13,-90.8 17.02,-34.86 33.23,-64.04 47.02,-87.55 14.59,-23.51 24.31,-36.49 28.36,-38.11 4.87,-3.24 12.16,-12.96 21.9,-28.36 0,-1.63 0.81,-3.26 2.43,-4.87 8.92,-18.64 21.08,-42.15 35.67,-68.92 12.16,-28.36 27.56,-56.74 44.6,-85.12 17.83,-27.56 33.23,-49.45 47.82,-66.48 1.63,-1.63 3.26,-4.05 4.87,-7.29 12.16,-16.22 29.19,-39.73 49.46,-71.35 24.31,-38.1 46.21,-76.2 66.48,-114.31 21.07,-41.34 45.39,-81.07 73.77,-120.79 25.12,-39.73 47.84,-69.72 66.48,-90.8 77.83,-80.25 83.51,-71.35 17.02,26.75 -14.59,18.66 -28.36,40.54 -42.97,64.05 -14.59,23.51 -25.94,44.6 -35.66,64.05 -8.11,18.64 -18.66,40.53 -33.25,64.04 -11.35,23.51 -22.7,45.41 -35.67,64.05 -104.58,171.06 -150.79,266.73 -140.25,287.81 4.87,3.24 12.16,0 21.88,-9.74 8.92,-9.72 18.66,-21.07 28.38,-35.67 8.92,-16.22 18.64,-29.18 28.38,-40.53 8.11,-11.36 13.77,-16.22 18.64,-16.22 3.24,0 11.35,-9.74 24.32,-29.19 13.77,-17.02 29.18,-39.73 44.6,-68.9 8.09,-13.79 17.02,-27.56 25.94,-39.73 39.73,-66.48 79.45,-129.72 119.18,-190.51 47.82,-73.79 80.25,-120.81 97.28,-140.27 4.85,-4.05 10.53,-10.53 17.02,-18.64 4.87,-6.48 9.74,-12.98 16.22,-18.64 14.59,-17.84 27.56,-34.06 40.54,-50.26 94.86,-120 142.68,-167.02 142.68,-140.27 0,9.74 -2.43,17.84 -7.29,24.32 -3.24,2.44 -5.67,5.68 -8.11,8.11 -2.43,2.44 -5.67,4.05 -8.91,5.68 -7.29,1.61 -13.79,7.29 -18.66,17.02 -4.85,5.68 -7.29,12.98 -7.29,21.08 0,9.72 -3.24,21.08 -8.91,35.67 -1.63,1.61 -2.44,3.24 -2.44,4.87 -9.72,18.64 -20.27,38.1 -31.62,56.74 -7.29,12.98 -15.4,25.95 -23.51,40.54 -6.48,8.11 -11.35,16.22 -16.22,25.94 -8.11,11.35 -15.4,21.9 -21.88,33.25 -5.68,9.72 -11.35,18.64 -16.22,25.94 -9.72,14.59 -18.64,29.99 -25.94,47.84 -6.5,17.03 -11.35,30.81 -14.6,40.54 -4.85,23.51 -19.46,59.98 -45.39,108.63 -23.51,51.08 -52.7,102.15 -87.56,154.84 -8.11,12.98 -17.02,26.75 -25.94,42.97 -6.48,10.55 -13.79,22.71 -21.88,35.67 -17.03,31.62 -33.25,60.81 -47.02,87.56 -8.11,16.22 -18.66,34.86 -30.82,56.74 -8.11,17.84 -17.83,36.49 -29.18,57.57 -13.79,29.99 -29.19,59.18 -44.6,87.55 -9.72,18.66 -19.46,38.11 -28.38,56.76 -94.84,187.27 -176.72,379.41 -244.83,577.23 -68.11,196.19 -102.15,339.68 -102.15,430.49 0,5.67 0,11.35 0,16.22 3.24,31.62 4.05,55.13 2.43,71.35 -1.61,17.02 -7.29,30.81 -17.02,40.53 -8.92,8.92 -25.14,18.64 -47.02,28.38 -36.49,15.4 -81.08,24.32 -132.96,25.94 -52.7,1.63 -95.67,-3.24 -130.53,-13.77 -12.98,-4.87 -24.32,-11.35 -33.25,-19.46 -1.61,-1.63 -2.43,-2.44 -2.43,-2.44 -8.11,-4.85 -14.59,-10.53 -19.46,-16.2 -1.63,-3.26 -4.05,-6.5 -8.11,-9.74 -4.05,-3.24 -8.11,-6.48 -12.98,-9.72 -11.35,-8.11 -23.51,-13.79 -38.1,-18.66 -14.59,-4.85 -24.32,-11.35 -30.81,-19.46 -6.48,-7.29 -9.74,-21.88 -9.74,-42.15 0,-22.7 1.63,-55.94 4.87,-99.72 3.24,-41.34 9.74,-85.93 18.64,-132.96 9.74,-47.82 19.46,-88.36 29.19,-121.61 33.25,-101.34 41.34,-111.06 25.94,-28.36 -4.85,46.21 -1.61,68.9 9.74,68.9 8.92,0 19.46,-22.7 30.81,-68.9 4.05,-20.27 3.24,-50.28 -4.87,-87.56 -6.48,-38.1 -17.02,-73.77 -30.81,-107.02 -12.98,-34.86 -24.32,-55.13 -33.23,-59.18 -4.87,-3.24 -8.11,-8.11 -9.74,-14.59 -3.24,-6.48 -4.87,-14.59 -4.87,-23.51 0,-9.72 -5.67,-27.56 -16.22,-52.69 -9.72,-26.77 -22.7,-55.13 -38.1,-85.14 -8.11,-16.22 -15.4,-30.81 -21.88,-45.39 -4.87,-11.35 -8.92,-20.27 -13.79,-28.38 -8.11,-21.08 -12.16,-30.81 -12.16,-30.81 3.26,0 -1.61,-13.79 -13.77,-40.54 -6.48,-12.96 -13.79,-26.75 -21.88,-42.97 -8.11,-15.4 -16.22,-32.43 -25.95,-49.45 -17.83,-36.49 -34.86,-70.53 -51.89,-102.15 -16.2,-33.25 -29.18,-56.76 -38.1,-68.92 -3.24,-4.85 -5.67,-8.91 -7.29,-12.15 -1.63,-1.63 -2.43,-3.26 -2.43,-4.87 -1.63,-3.24 -2.44,-5.68 -2.44,-6.5 0,-1.61 -0.81,-3.24 -1.61,-4.04 -0.81,-0.81 -0.81,-1.63 -0.81,-3.26 -1.63,-3.24 -2.44,-7.29 -2.44,-12.16 -4.85,-14.59 -10.53,-30.81 -16.2,-50.26 -8.11,-26.75 -17.03,-50.26 -26.77,-70.53 -8.91,-22.7 -16.2,-33.23 -21.07,-33.23 -1.63,0 -5.68,-4.87 -12.16,-14.6 -4.87,-9.72 -8.11,-20.26 -11.35,-33.23 -4.87,-14.59 -12.98,-32.43 -24.32,-54.32 -8.92,-22.7 -21.08,-42.97 -35.67,-62.42 -2.43,-4.05 -5.67,-8.92 -8.92,-13.79 -8.11,-12.96 -15.4,-25.12 -21.88,-38.1 -8.92,-17.03 -13.79,-29.19 -13.79,-35.67 0,-4.87 -6.48,-18.64 -19.46,-42.97 -10.53,-21.88 -25.94,-45.39 -44.58,-71.35 -19.46,-26.75 -34.06,-50.26 -45.41,-70.53 -12.96,-21.07 -18.64,-32.43 -18.64,-33.23 0,-9.74 -13.77,-34.86 -40.54,-76.21 -28.36,-44.58 -59.98,-92.42 -94.84,-145.12 -14.6,-18.64 -28.38,-38.1 -40.54,-56.74 -21.08,-28.38 -40.54,-55.94 -59.18,-81.08 -3.24,-4.85 -7.29,-9.72 -12.16,-13.77 -21.88,-30.81 -35.67,-45.41 -40.53,-45.41 -18.66,0 -30.82,-10.53 -35.67,-30.81 -4.87,-19.46 -3.26,-40.53 4.85,-64.04 8.11,-22.71 21.9,-36.49 42.97,-42.97 8.92,-3.26 21.08,-4.87 35.67,-4.87 13.79,0 26.77,1.61 38.11,4.87 8.91,3.24 20.26,4.05 33.23,2.43 12.16,-1.63 21.9,-5.68 28.38,-12.16 8.11,-4.87 24.32,-8.92 49.45,-13.77 26.75,-4.87 56.76,-8.11 88.38,-9.74 17.02,0 31.62,0 42.15,0zm1950.58 71.35c1.63,-1.63 2.44,-2.44 3.26,-2.44 0.8,0 1.61,0.81 1.61,2.44 0.81,1.61 1.63,4.05 1.63,7.29 0,3.24 -0.81,5.68 -1.63,8.92 -4.87,8.11 -10.53,14.59 -17.03,19.46 -8.09,6.48 -14.59,9.72 -18.64,9.72 -4.87,0 -7.29,-2.43 -7.29,-7.29 0,-1.61 0.81,-2.43 2.43,-2.43 1.63,-4.87 4.87,-10.55 8.92,-17.03 6.5,-6.48 12.16,-10.53 15.4,-12.98 4.05,-2.43 8.11,-4.05 11.35,-5.67zm39.73 182.4c1.63,0 3.24,1.63 4.05,4.87 0.81,3.24 0.81,7.29 0.81,12.16 0,11.35 -3.24,20.27 -8.92,28.38 -3.24,3.24 -6.48,5.67 -8.91,8.11 -2.44,2.43 -4.87,4.85 -8.11,6.48 -6.5,1.63 -12.16,-0.81 -16.22,-7.29 -1.63,-4.87 -1.63,-10.53 0,-17.03 4.05,-7.29 9.72,-14.59 16.22,-21.07 9.72,-9.74 17.02,-14.6 21.07,-14.6zm-213.21 47.84c8.11,0 8.91,4.87 2.43,14.59 -3.24,8.92 -9.74,19.46 -19.46,30.82 -8.92,12.15 -19.46,22.7 -30.81,30.81 -9.74,9.72 -17.84,14.59 -25.95,16.22 -12.96,-1.63 -7.29,-17.03 16.22,-47.02 12.98,-12.98 24.32,-23.51 34.06,-30.82 10.53,-9.72 18.64,-14.59 23.51,-14.59zm-1527.4 591.82c-9.72,0 -13.77,8.11 -12.16,25.95 0,4.85 5.68,21.07 17.03,49.45 9.74,25.94 22.7,55.13 40.54,88.36 13.77,30.01 25.94,58.37 35.67,85.14 8.91,23.51 12.16,38.91 8.91,45.39 -3.24,6.48 0,23.51 9.74,51.89 9.72,29.99 22.7,64.04 40.54,102.15 11.35,22.7 21.88,45.39 33.23,68.9 6.48,17.84 12.98,34.05 21.08,50.26 9.72,21.9 17.83,41.35 24.31,56.76 5.68,16.22 12.16,29.99 18.66,42.97 6.48,13.77 12.16,29.18 16.22,44.6 4.85,11.35 9.72,23.51 14.59,35.66 9.72,19.46 17.83,36.49 23.51,52.7 3.24,8.11 6.48,15.4 9.72,23.51 9.74,21.08 18.66,42.15 25.95,64.05 8.11,17.83 13.77,31.62 17.02,42.97 0,3.24 0.81,6.48 2.44,9.72 1.61,3.24 3.24,5.68 4.87,8.92 3.24,8.11 5.67,14.59 8.91,19.46 4.87,8.11 9.74,11.35 14.6,11.35 4.85,0 8.09,2.43 9.72,7.29 3.24,3.24 4.87,8.92 4.87,17.03 0,6.48 0,14.59 0,25.94 0,6.5 0,12.98 1.61,18.64 0,4.87 0,9.74 0,14.6 0,4.87 0.81,9.72 2.44,14.59 0,7.29 0.81,11.35 2.43,11.35 4.87,0 10.53,-6.48 17.03,-18.64 12.16,-21.08 12.16,-47.84 0,-81.07 -4.87,-13.79 -8.92,-27.56 -12.16,-40.54 0,-12.16 0.81,-21.08 2.43,-25.94 3.24,-9.74 -7.29,-47.02 -30.81,-113.5 -23.51,-68.11 -52.69,-142.69 -87.56,-223.76 -33.23,-83.51 -65.66,-152.43 -95.66,-206.74 -13.79,-31.62 -26.75,-60.8 -37.3,-87.55 -9.72,-26.77 -12.96,-45.41 -9.72,-54.32 1.61,-9.74 0,-20.27 -4.87,-31.62 -4.87,-10.55 -12.16,-21.08 -21.07,-30.82 -9.74,-7.29 -20.27,-21.07 -30.82,-39.71 -12.96,-21.08 -24.31,-41.35 -34.05,-62.42 -21.88,-45.41 -38.91,-70.53 -51.89,-72.97z"/>
    <path class="fil5" d="M52996.92 6076.58c29.19,0 60.81,6.48 95.67,18.64 23.51,8.11 47.84,14.6 72.96,19.46 3.26,0 5.68,0.81 7.31,2.44 22.7,4.05 40.53,6.48 55.13,6.48 33.23,0 71.33,21.9 115.93,64.05l66.48 66.48 710.19 2.43c270.78,0 461.29,2.44 569.92,7.29 107.83,3.26 164.58,9.74 171.07,19.46 16.22,8.92 22.7,16.22 19.46,21.08 -1.63,3.24 -16.22,4.87 -42.97,4.87 -16.22,1.61 -30.01,2.43 -42.97,2.43 -12.16,-1.61 -22.7,-2.43 -30.81,-2.43 -4.87,-3.24 -23.51,-4.87 -56.76,-4.87 -29.99,-1.63 -66.48,-2.43 -109.45,-2.43 -41.34,-3.26 -78.64,-5.68 -111.87,-7.31 -4.87,0 -8.92,-0.8 -13.79,-2.43 -25.14,-3.24 -41.34,-6.48 -47.84,-8.92 -17.02,-11.35 -21.07,-9.72 -11.35,4.05 13.79,17.84 -17.83,24.32 -95.66,19.46 -30.01,-3.24 -61.63,-3.24 -94.86,0 -31.62,1.63 -55.94,4.87 -73.77,9.74 -38.91,8.92 -68.92,5.67 -87.56,-9.74 -3.24,-3.24 -6.48,-5.67 -9.74,-7.29 -3.24,-1.61 -6.48,-2.43 -8.91,-2.43 -4.87,0 -7.29,2.43 -7.29,7.29 0,4.87 -17.03,10.53 -50.28,16.22 -31.62,8.11 -66.48,14.59 -104.58,19.46 -38.1,4.87 -70.53,7.29 -97.28,7.29 -1.63,0 -7.29,-0.81 -16.22,-2.43 -9.74,0 -21.88,-0.81 -35.67,-2.44 -25.94,0 -54.32,-1.61 -85.93,-4.85 -6.48,0 -12.16,0 -18.64,0 -36.49,-1.63 -65.66,-2.44 -88.38,-2.44 -18.64,0 -23.51,1.63 -13.77,4.87 10.53,3.24 21.07,7.29 30.81,12.16 1.63,1.61 3.24,1.61 4.87,1.61 8.11,6.5 12.16,11.35 13.77,14.6 21.08,23.51 299.97,40.53 839.09,50.26 33.25,0 51.89,1.61 56.76,4.05 1.61,1.61 0.8,4.87 -2.44,8.92 -3.24,4.04 -9.72,8.91 -19.46,15.4 -25.12,18.64 -27.56,28.36 -6.48,28.36 18.64,-1.61 15.4,6.5 -9.74,23.51 -11.35,8.11 -30.81,13.79 -59.18,17.03 -28.36,4.87 -59.98,7.29 -93.23,7.29 -77.01,-3.24 -115.93,4.05 -115.93,23.51 0,4.87 -1.63,9.74 -4.87,13.79 -1.61,1.61 -3.24,2.43 -4.87,2.43 -1.61,0 -3.24,-0.81 -4.85,-2.43 -4.87,-3.26 -15.4,-3.26 -33.25,0 -17.03,0 -36.49,2.43 -56.74,7.29 -1.63,1.61 -4.05,2.43 -7.31,2.43 -47.02,9.74 -93.23,17.84 -137.81,23.51 -43.78,6.5 -106.21,12.16 -184.85,17.03 -192.14,13.77 -295.92,29.99 -313.75,47.02 -1.63,4.87 -4.05,15.4 -7.29,31.62 0,15.4 0,34.05 0,54.32 0,8.11 0,17.83 0,30.81 -1.63,18.64 -2.44,42.97 -2.44,71.35 0,44.58 0,91.6 0,142.68 -1.61,61.63 -0.81,106.21 2.44,132.97 3.24,25.12 9.72,38.1 19.46,38.1 17.02,0 17.02,6.48 0,21.07 -21.08,20.27 -25.95,34.06 -14.6,40.54 12.98,8.11 45.41,10.53 97.3,9.74 66.48,0 92.42,-5.68 78.64,-17.03 -20.27,-12.98 -17.84,-17.84 9.72,-16.22 28.38,0 32.43,-5.67 11.35,-17.03 -56.74,-33.23 25.95,-39.71 247.27,-18.64l232.68 21.08 0 49.45c0,12.98 1.61,25.14 4.85,35.67 0,1.63 0,3.24 0,4.87 1.63,1.61 2.44,4.05 2.44,7.29 3.24,8.11 7.29,14.59 12.16,18.64 7.29,9.74 14.59,30.01 21.07,60 6.5,29.99 10.55,62.42 12.16,97.28 0.81,33.25 0,60 -4.87,80.27 -14.59,76.2 -70.53,91.6 -168.61,45.39 -3.26,-1.63 -5.68,-2.43 -7.31,-2.43 -25.12,-9.74 -53.5,-17.84 -83.49,-25.95 -33.25,-9.72 -64.05,-15.4 -92.43,-17.02 -86.75,-7.31 -168.63,-11.35 -244.83,-11.35 -75.4,0 -119.18,4.04 -130.53,11.35 -4.87,4.85 -8.11,32.42 -9.74,81.07 -2.43,49.45 -4.04,106.21 -4.04,171.06 -1.63,63.24 -1.63,120.79 0,173.5 0,51.89 1.61,85.12 4.04,99.72 3.26,9.72 21.9,14.59 55.13,16.2 36.49,0 98.91,-2.43 187.29,-6.48 66.48,-3.24 125.66,-5.67 175.92,-7.29 21.88,-1.63 40.53,-2.43 54.32,-2.43 21.08,-1.63 34.05,-2.44 40.54,-2.44 290.24,4.87 434.54,14.59 434.54,28.38 0,1.63 0,3.24 -0.81,4.87 -0.81,1.61 -1.63,3.24 -3.24,4.85 -1.63,1.63 -4.05,2.44 -6.5,3.26 -2.43,0.8 -4.85,1.61 -8.11,1.61 -1.61,0 -3.24,0 -5.67,0.81 -2.43,0.81 -4.87,2.43 -6.48,4.05 -4.87,4.05 -6.5,8.92 -6.5,13.77 0,4.87 4.05,8.11 13.79,9.74 9.72,0 21.07,-0.81 33.23,-2.43 14.59,-3.26 28.38,-3.26 42.97,0 13.79,1.61 25.95,4.85 35.67,9.72 26.75,13.79 28.38,21.08 4.87,21.08 -6.48,1.61 -2.43,4.87 11.35,9.72 11.35,3.24 25.94,6.5 42.97,8.92 9.74,3.24 18.64,5.68 28.38,7.29l111.87 24.32 -121.61 6.48c-18.64,1.63 -38.91,2.44 -61.61,2.44 -18.64,0 -39.73,0.8 -61.61,2.43 -46.21,1.63 -87.56,2.43 -125.66,2.43 -104.59,1.63 -206.73,6.5 -306.45,14.6 -99.72,6.48 -184.03,13.77 -252.14,23.51 -66.48,9.72 -99.71,18.64 -99.71,28.36 0,4.87 42.97,7.31 128.9,7.31 78.64,1.61 175.11,0.8 289.42,-2.44 9.74,0 18.64,0 28.38,0 304.01,-8.11 449.13,-4.87 434.54,9.74 -3.24,4.87 -2.43,10.53 2.43,18.64 3.24,8.11 9.74,14.59 19.46,19.46 30.01,13.79 23.51,20.27 -19.46,18.64 -13.77,0 -25.94,-2.43 -35.67,-7.29 -4.85,-1.61 -8.11,-4.05 -10.53,-7.29 -2.43,-2.43 -3.24,-4.87 -3.24,-6.48 0,-17.84 -5.68,-17.03 -17.03,2.43 -11.35,17.03 -33.23,21.08 -66.48,11.35 -13.77,-3.24 -28.38,-4.05 -42.97,-2.43 -10.53,0 -20.27,2.43 -28.38,7.29 -15.4,12.98 -42.15,23.51 -80.25,33.23 -34.86,9.74 -70.53,15.4 -107.02,17.03 -16.22,0 -28.38,2.43 -38.1,6.48 -9.74,4.87 -14.59,9.74 -14.59,14.6 -3.26,14.59 -51.89,24.31 -146.75,30.81 -24.32,1.61 -47.02,3.24 -68.9,4.87 -19.46,1.61 -37.3,3.24 -55.13,4.85 -18.66,1.63 -35.67,3.26 -49.46,4.87 -16.22,1.63 -27.56,3.24 -35.67,4.87 -3.24,0 -7.29,0.81 -12.15,1.61 -12.16,3.26 -29.19,5.68 -49.46,7.31 -12.98,1.61 -25.12,3.24 -35.67,4.85 -14.59,1.63 -27.56,4.05 -40.53,7.29 -142.69,18.66 -233.49,51.08 -273.22,97.3 -47.82,49.45 -52.69,76.2 -16.22,81.07 13.79,4.05 17.84,21.08 11.36,49.45l-9.74 45.41 -23.51 -50.26c-1.63,-3.26 -2.43,-6.5 -2.43,-8.92 -4.87,-12.98 -8.92,-26.75 -11.35,-40.54 -4.87,-17.83 -7.31,-33.23 -7.31,-47.84 0,-13.77 -1.61,-25.12 -4.85,-33.23 -1.63,-3.24 -4.05,-5.68 -8.11,-7.29 -4.05,-1.63 -9.74,-1.63 -15.4,0 -11.35,0 -30.81,1.61 -60,4.87 -25.14,3.24 -51.89,9.72 -80.27,19.46 -28.36,5.67 -52.69,13.77 -71.33,23.51 -106.21,49.45 -200.25,34.05 -282.94,-45.41 -38.1,-39.73 -69.72,-89.99 -94.86,-151.6 -25.14,-60 -33.25,-106.21 -23.51,-137.82 18.64,-51.08 187.27,-107.83 505.89,-171.06 11.35,-3.26 21.08,-8.11 30.81,-14.6 8.11,-7.29 12.16,-14.59 12.16,-21.07 0,-9.74 0.81,-15.4 4.05,-17.03 1.63,-0.81 3.24,-2.43 4.87,-3.24 1.61,-0.81 4.05,0 7.29,1.61 3.24,1.63 5.67,1.63 7.29,0.81 1.63,-0.81 3.24,-1.61 4.87,-3.24 1.61,-3.24 2.43,-6.48 3.24,-9.72 0.81,-3.26 0.81,-7.31 -0.81,-12.16 0,-12.16 -1.61,-20.27 -4.87,-23.51 -1.61,-3.24 -3.24,-4.87 -4.85,-5.68 -1.63,-0.81 -3.26,-0.81 -4.87,0.81 -4.87,0 -8.11,-13.79 -9.74,-40.54 0,-8.91 0,-18.64 0,-28.36 -1.61,-23.51 -1.61,-50.28 0,-80.27 0,-46.21 -0.8,-83.51 -2.43,-111.87 -1.63,-30.01 -4.05,-45.41 -8.92,-45.41 -4.87,0 -8.11,-9.72 -9.72,-28.38 -1.63,-17.02 -2.44,-38.91 -2.44,-64.04 0,-26.75 2.44,-49.46 7.29,-66.48 4.87,-17.84 9.74,-25.95 13.79,-25.95 14.59,0 19.46,-2.43 14.59,-7.29 -3.24,-3.24 -12.16,-7.29 -25.94,-12.16 -14.59,-4.87 -31.62,-8.91 -52.7,-11.35 -64.85,-9.72 -158.89,-8.92 -282.13,2.44 -84.31,5.67 -149.17,10.53 -195.38,13.77 -45.39,1.63 -77.83,1.63 -97.28,0 -20.27,-1.63 -35.67,-7.29 -44.6,-16.22 -16.22,-9.72 -23.51,-17.03 -21.88,-21.88 1.61,-3.24 12.98,-4.87 33.23,-4.87 24.32,-3.24 42.17,-4.87 55.13,-6.48 13.79,0 24.32,-1.63 30.81,-4.87 4.87,-1.63 9.74,-4.05 13.79,-7.29 1.63,-1.63 3.24,-3.24 4.87,-4.87 8.11,-3.24 17.02,-4.87 25.94,-4.87 9.74,0 19.46,1.63 29.19,4.87 21.88,8.11 28.36,4.87 18.64,-9.74 -9.74,-13.77 6.48,-21.88 47.84,-23.51 17.02,0 34.05,-1.61 49.45,-4.85 1.63,0 3.24,0 4.87,0 18.64,-3.24 34.05,-7.29 45.39,-11.35 30.01,-14.6 23.51,-17.84 -19.46,-9.74 -184.85,26.75 -272.39,30.81 -261.04,11.35 4.87,-4.05 11.35,-8.92 18.64,-13.77 11.35,-4.87 20.27,-7.29 26.75,-7.29 8.92,0 18.64,-0.81 28.38,-2.44 8.11,-1.61 13.79,-4.87 18.64,-9.72 1.63,-1.63 3.24,-2.44 4.87,-4.05 1.63,-1.63 3.24,-2.44 4.87,-2.44 6.48,-3.24 14.59,-5.67 23.51,-7.29 4.87,-1.61 11.35,-3.24 19.46,-4.87 5.67,-1.61 14.59,-3.24 25.94,-4.85 6.5,-1.63 13.79,-2.44 23.51,-2.44 16.22,-1.61 34.86,-4.05 56.76,-7.29 44.58,-5.67 80.25,-11.35 107,-16.22 4.87,-1.61 9.74,-2.43 14.6,-2.43 26.75,-3.24 47.82,-7.29 61.61,-12.16 16.22,-3.24 30.81,-7.29 45.39,-13.79 33.25,-14.59 49.46,-33.23 49.46,-57.56 0,-8.92 2.43,-17.83 7.29,-25.94 3.24,-3.24 6.48,-5.68 9.72,-7.29 3.26,-0.81 7.31,-1.63 11.36,-1.63 9.72,0 17.02,-4.87 21.88,-14.59 4.87,-8.11 6.48,-17.03 4.87,-25.95 -1.63,-9.72 -7.29,-16.2 -17.03,-19.46 -18.64,-3.24 -34.86,-92.42 -47.02,-268.34 -3.24,-85.12 -14.59,-138.64 -33.23,-158.91 -21.08,-21.88 -68.92,-31.62 -145.12,-28.36 -74.59,1.61 -130.53,-8.11 -168.63,-28.38 -38.11,-22.7 -72.16,-64.05 -102.15,-124.03 -14.6,-31.62 -24.32,-60 -30.82,-85.14 -4.85,-28.38 -6.48,-59.98 -4.85,-94.86 3.24,-29.18 5.67,-52.69 7.29,-71.33 1.61,-4.87 2.43,-9.74 2.43,-14.6 3.24,-11.35 4.87,-17.83 6.5,-21.07 3.24,-3.24 15.4,-3.24 35.67,0 1.61,0 4.04,0 7.29,0 21.07,1.61 44.58,5.67 71.33,11.35 106.21,19.46 183.23,20.27 230.25,2.43 47.82,-13.77 51.87,-42.15 12.16,-85.12 -26.77,-28.38 -30.82,-51.89 -12.16,-68.9 19.46,-17.84 51.08,-25.95 94.84,-25.95zm1520.1 417.53c4.85,0 9.72,0.8 13.77,1.61 3.24,0.81 6.5,1.63 8.11,3.24 3.24,1.63 4.87,3.26 5.68,4.87 0.8,1.63 0.8,4.05 -0.81,7.29 -4.87,4.87 -10.53,9.74 -17.03,13.79 -6.48,3.24 -12.96,4.87 -21.07,4.87 -6.5,0 -12.98,-1.63 -19.46,-4.87 -3.26,-3.24 -5.68,-5.68 -6.5,-8.11 -1.61,-2.44 -2.43,-4.05 -2.43,-5.68 0,-4.85 3.24,-8.91 11.35,-12.16 8.11,-3.24 17.83,-4.85 28.38,-4.85zm-465.36 93.23c9.74,0 17.84,1.61 23.51,4.05 11.36,6.48 3.26,9.72 -23.51,9.72 -23.51,0 -30.81,-3.24 -21.07,-9.72 8.11,-2.44 14.59,-4.05 21.07,-4.05zm-1147.16 778.28c-6.48,0 -12.98,0.81 -21.08,2.44 -14.59,6.48 -10.53,10.53 11.36,12.16 9.72,0 17.02,-0.81 21.88,-2.44 1.63,-1.61 2.43,-2.43 3.24,-3.24 0.81,-0.81 0.81,-2.43 -0.81,-4.05 -1.61,-1.63 -4.05,-2.43 -6.48,-3.24 -2.43,-0.81 -4.87,-1.63 -8.11,-1.63zm327.54 169.44c-5.68,0.81 -10.55,6.48 -13.79,16.22 -3.24,8.11 -4.05,17.03 -2.43,25.94 0,11.35 0.8,35.67 2.43,73.77 1.63,38.11 2.43,81.08 2.43,128.1 1.63,179.16 14.6,241.59 40.54,188.09 4.05,-9.74 6.48,-19.46 6.48,-28.38 1.63,-4.87 2.44,-9.72 1.63,-13.77 -0.81,-3.26 -2.43,-6.5 -4.05,-8.11 -2.43,-6.5 -5.68,-29.19 -8.92,-68.92 0,-17.02 0,-36.49 0,-56.74 -1.61,-23.51 -2.43,-50.28 -2.43,-78.64 0,-131.34 -7.29,-190.53 -21.88,-177.55zm95.66 465.35c-1.61,-1.61 -2.43,-2.43 -2.43,-2.43 0,0 -0.81,0.81 -2.44,2.43 -1.61,0 -3.24,1.63 -4.85,4.87 -1.63,1.63 -3.26,3.24 -4.87,4.05 -4.87,6.48 -8.11,14.59 -9.74,24.32 0,3.24 0,6.48 0,8.92 0,3.24 0.81,5.67 2.44,7.29 3.24,4.85 3.24,8.91 0,12.16 -1.63,1.61 -2.44,2.43 -3.24,3.24 -0.81,0.81 -3.26,1.61 -5.68,1.61 -1.63,0 -4.87,-0.8 -8.92,-2.43 -4.05,-1.63 -7.29,-4.05 -10.53,-7.29 -8.11,-6.5 -13.79,-14.59 -18.64,-23.51 -14.6,-28.38 -21.08,-23.51 -19.46,16.22 0,16.22 2.43,27.56 7.29,35.67 6.48,6.48 17.83,8.91 33.23,7.29 17.84,0 28.38,-4.05 33.25,-12.16 8.11,-8.92 12.98,-24.32 14.59,-44.6 3.24,-22.7 3.24,-34.05 0,-35.67zm619.39 87.56l-71.35 2.43 66.48 12.16c6.5,1.63 12.98,3.24 19.46,4.87 9.74,1.63 17.84,3.24 25.95,6.48 8.11,1.63 13.77,3.26 17.02,4.87 3.26,0 4.87,0 6.5,0 0,0 0,0 0,0 0,0 0,0 0,0 0,0 0.81,0 1.61,0 0.81,0 0.81,0 0.81,-0.81 0,-0.8 0,-1.61 0,-2.43 0,-0.81 0,-1.63 0,-1.63 1.63,-1.61 2.44,-3.24 2.44,-5.67 0,-2.44 0,-4.05 0,-5.68 0,-4.87 -7.31,-8.91 -21.08,-12.16 -12.98,-3.24 -28.38,-4.05 -47.84,-2.43zm793.7 109.45c26.75,0 47.82,1.63 64.04,4.87 15.4,3.24 23.51,7.29 23.51,11.35 0,9.72 -11.35,15.4 -35.67,17.03 -25.12,0 -55.93,-5.68 -92.42,-17.03 -39.73,-10.53 -25.94,-16.22 40.54,-16.22z"/>
    <path class="fil5" d="M55476.91 5425.57c5.67,-1.61 8.91,11.35 8.91,38.1 1.63,25.14 0,55.94 -4.85,92.43 -2.44,34.86 -8.11,66.48 -16.22,94.86 -1.63,3.24 -2.44,6.48 -2.44,9.72 -8.11,21.9 -14.59,47.84 -18.64,76.21 -1.61,6.48 -3.24,12.16 -4.87,18.64 -6.48,25.14 -10.53,48.65 -12.16,68.9 -1.61,19.46 -4.04,39.73 -7.29,61.63 -1.61,9.72 -3.24,20.27 -4.85,30.81 -4.05,33.23 -8.92,63.24 -13.79,88.36 -17.83,88.38 -33.23,187.29 -47.84,296.73 -4.85,33.23 -8.11,61.61 -11.35,85.12 -1.61,8.11 -3.24,15.4 -4.87,21.88 -4.85,30.01 -8.91,45.41 -12.15,47.02 -1.63,1.63 -4.05,12.98 -7.31,33.25 -1.61,21.07 -2.43,45.39 -2.43,73.77 -1.63,17.83 -1.63,34.86 0,52.7 0,8.11 0,15.4 0,23.51 3.24,23.51 5.68,38.1 7.29,42.97 8.11,10.53 13.79,13.77 17.03,8.91 4.87,-7.29 8.92,-26.75 13.77,-56.74 3.24,-12.16 6.5,-26.75 9.74,-42.97 1.61,-12.16 4.05,-26.75 7.29,-42.15 7.29,-34.87 14.59,-67.29 21.08,-97.3 26.75,-119.17 53.5,-252.94 78.64,-402.11 26.75,-149.99 43.77,-264.3 51.87,-341.31 3.24,-39.73 7.29,-74.59 12.16,-104.58 8.11,-28.38 12.98,-45.41 13.79,-50.26 16.22,-12.16 29.18,-3.26 38.1,28.36 8.11,30.01 9.72,73.77 4.87,130.53 -1.63,31.62 -4.05,73.77 -7.29,126.48 -1.63,48.63 -3.26,97.28 -6.5,144.3 0,44.6 -3.24,89.18 -9.72,133.77 -4.87,45.39 -9.74,79.45 -14.6,102.15 -10.53,42.15 -19.46,87.55 -25.94,134.57 -4.87,47.84 -7.29,88.38 -7.29,121.61 0,33.25 4.87,47.02 14.59,42.97 12.16,-12.96 14.59,10.55 7.29,71.35 -11.35,75.4 -19.46,134.58 -24.31,175.12 0,1.61 0,3.24 0,4.85 -3.26,42.97 0,76.21 9.72,99.72 6.48,22.7 20.27,43.78 40.54,64.05 39.73,44.58 109.45,109.45 209.16,195.38 98.1,85.12 194.58,163.76 289.42,235.11 38.11,29.99 68.11,51.08 90,64.04 22.7,13.79 36.47,20.27 42.97,18.66 9.72,0 16.2,-5.68 19.46,-16.22 3.24,-12.98 4.85,-27.56 4.85,-42.97 0,-4.87 -0.8,-10.55 -2.43,-17.03 0,-10.53 -1.63,-21.08 -4.87,-30.81 -8.11,-23.51 -16.22,-74.59 -24.32,-154.04 -8.91,-79.45 -17.02,-163.76 -23.51,-254.56 -1.61,-10.53 -3.24,-29.99 -4.85,-56.74 -1.63,-14.6 -3.26,-30.82 -4.87,-49.46 -1.63,-19.46 -3.24,-39.73 -6.48,-62.42 -3.26,-34.86 -6.5,-72.14 -9.74,-111.07 -6.48,-66.48 -11.35,-131.33 -14.59,-195.38 -4.87,-63.24 -5.68,-111.06 -2.44,-144.3l4.87 -111.87 83.51 -33.25c47.02,-17.02 103.76,-26.75 168.63,-28.38 61.61,-1.61 113.5,5.68 156.47,21.08 56.74,26.75 72.96,88.36 47.84,183.22 -22.71,64.87 -30.01,262.67 -24.32,593.45 1.61,58.37 2.43,108.63 2.43,149.99 0,39.71 -0.81,63.22 -2.43,71.33 0,5.68 0.81,16.22 2.43,30.82 0,13.77 2.44,30.81 7.29,49.45 3.26,17.83 6.5,48.65 9.74,93.23 4.87,43.78 8.92,91.62 12.16,141.88 4.05,47.84 8.92,89.99 13.77,126.48 6.5,34.86 12.16,55.93 17.03,64.04 4.05,4.87 16.22,10.55 35.67,18.66 17.03,6.48 36.49,13.77 59.18,21.88 21.88,5.68 44.58,15.4 68.9,28.38 25.14,12.16 44.6,23.51 59.18,33.23 16.22,10.55 34.05,21.08 54.32,30.81 21.08,6.5 38.11,9.74 52.7,9.74 13.77,0 26.75,0.81 38.1,4.05 1.63,0 3.24,0 4.87,0 12.16,1.61 19.46,4.87 21.07,9.72 8.11,9.74 29.19,19.46 64.05,28.38 34.86,9.74 73.77,18.64 116.74,25.95 42.17,8.11 80.27,12.15 113.5,12.15l94.86 2.44 -75.4 21.07c-55.93,17.84 -132.96,30.01 -232.67,35.67 -98.91,6.5 -192.14,6.5 -280.52,0 -39.73,-3.24 -75.39,-4.05 -107,-4.05 -30.01,0 -48.65,1.63 -54.33,6.5 -4.85,4.87 -8.09,12.96 -9.72,24.32 0,10.53 1.63,23.51 4.87,37.29 3.24,14.59 5.67,29.99 7.29,45.39 1.61,14.6 1.61,27.56 1.61,40.54 0,9.74 0.81,17.84 2.44,25.94 1.61,4.87 3.24,8.11 4.87,10.55 1.61,2.43 3.24,4.87 4.85,6.48 9.74,4.87 19.46,25.95 28.38,64.05 12.98,38.1 22.7,79.45 28.38,125.66 6.48,44.58 9.72,78.64 9.72,102.15 -1.61,16.22 -4.05,35.67 -7.29,59.18 -1.61,11.35 -3.24,21.88 -4.05,30.81 -1.61,12.96 -4.05,25.12 -7.29,35.67 -4.87,25.94 -4.05,51.87 2.44,78.64 6.48,23.51 21.07,57.56 44.58,102.15 16.22,29.99 28.38,56.74 38.1,81.07 9.74,23.51 13.79,36.49 12.16,39.73 -4.85,4.85 -5.67,12.16 -2.43,21.88 0,8.11 2.43,16.22 7.29,25.94 0,1.63 0.81,3.26 2.43,4.87 4.05,11.35 6.5,21.08 6.5,30.81 3.24,8.11 3.24,12.16 0,12.16 -1.63,0 -2.44,-0.81 -4.05,-2.43 -1.63,-1.63 -3.24,-3.24 -4.87,-4.87 -4.87,-4.87 -8.92,-11.35 -12.16,-19.46 -6.48,-13.77 -17.02,-29.99 -33.23,-47.02 -17.03,-17.83 -34.86,-31.62 -51.89,-42.97 -19.46,-11.35 -33.25,-17.03 -42.97,-17.03 -3.24,1.63 -6.48,2.44 -9.74,2.44 -3.24,0 -6.48,-0.81 -9.72,-2.44 -1.63,0 -3.24,0 -5.68,-0.8 -2.43,-0.81 -4.05,-1.63 -5.67,-3.26 -8.11,-11.35 -2.44,8.11 16.22,59.18 3.24,9.74 0.8,10.55 -7.31,2.44 -5.67,-4.87 -16.2,-17.03 -30.81,-35.67 -12.16,-17.84 -23.51,-34.05 -33.23,-50.26 -8.92,-15.4 -13.79,-25.95 -13.79,-30.81 1.63,-4.87 3.24,-6.5 5.68,-5.68 2.43,0.81 6.48,4.05 12.98,10.53 17.83,19.46 26.75,21.08 26.75,7.29 2.43,-17.83 -2.44,-42.97 -17.03,-76.2 -58.37,-126.48 -111.07,-268.35 -156.47,-424.82 -19.46,-57.56 -31.62,-101.34 -38.1,-132.96 -9.74,-31.62 -15.4,-60 -17.03,-83.51 -1.63,-23.51 -4.05,-53.5 -7.29,-89.99 0,-26.75 -2.43,-51.87 -8.92,-73.77 -4.87,-20.27 -10.53,-33.23 -17.02,-38.1 -8.92,-4.87 -14.6,-2.43 -16.22,7.29 -1.63,8.11 -1.63,28.38 0,61.61 3.24,21.9 5.67,42.97 6.48,61.63 3.24,17.83 6.48,28.36 9.74,33.23 3.24,6.5 6.48,21.9 9.72,45.41 3.24,25.12 5.68,54.32 7.29,87.55 1.63,33.25 4.87,63.24 8.92,90.8 0,1.63 0,2.43 0,2.43 6.48,21.9 12.98,36.49 19.46,44.6 6.48,4.87 12.16,12.98 16.22,24.32 4.87,8.92 7.29,18.64 7.29,28.38 0,10.53 1.63,22.7 4.87,35.67 3.24,13.77 7.29,26.75 12.16,38.1 17.02,38.91 29.18,68.09 35.67,85.12 4.85,18.64 5.67,31.62 4.04,38.1 0,4.87 2.44,12.16 7.31,23.51 0,1.63 0.8,3.26 2.43,4.87 3.24,11.35 8.92,21.9 17.03,33.25 1.61,3.24 3.24,6.48 4.85,9.72 5.68,10.53 9.74,19.46 11.36,25.95 1.61,4.85 2.43,8.91 2.43,12.15 0,3.26 -0.81,4.87 -2.43,4.87 -4.87,0 -4.87,3.24 0,11.35 1.61,1.63 4.04,4.05 7.29,7.29 3.24,3.26 7.29,8.11 12.16,13.79 8.91,8.11 16.2,16.22 21.07,24.32 4.87,8.11 5.68,13.77 2.44,18.64 -16.22,14.59 -42.97,-20.27 -81.08,-104.58 -38.1,-83.51 -76.2,-190.53 -115.93,-320.24 -39.73,-129.72 -70.53,-256.99 -92.43,-380.23 -8.11,-46.21 -17.02,-79.44 -26.75,-99.71 -10.53,-23.51 -33.23,-44.6 -66.48,-61.61 -31.62,-19.47 -83.51,-43.78 -156.47,-73.79 -49.45,-21.88 -94.04,-45.39 -135.38,-68.9 -41.35,-23.51 -87.56,-55.13 -140.27,-94.86 -28.36,-21.88 -56.74,-41.34 -85.12,-56.74 -29.18,-17.84 -51.08,-30.01 -66.48,-35.67 -8.11,-3.24 -17.03,-7.29 -26.75,-12.16 -7.29,-4.87 -17.03,-9.74 -28.38,-14.59 -8.11,-4.05 -14.59,-8.92 -21.07,-13.79 -11.36,-4.87 -21.08,-10.53 -28.38,-17.03l-28.38 -8.91 -9.72 44.58c3.24,38.11 0.8,82.69 -7.31,132.96 -6.48,51.08 -14.59,100.54 -23.51,149.99 -1.61,11.35 -3.24,21.08 -4.85,30.81 -6.5,34.86 -10.55,64.87 -12.16,89.99 -4.87,38.11 -12.98,89.19 -25.95,152.41 -1.61,10.55 -3.24,21.9 -4.85,33.25 -13.79,76.2 -28.38,146.73 -42.97,213.22 -13.79,65.66 -24.32,104.58 -30.82,119.17 -1.61,3.24 -7.29,6.48 -16.2,9.74 -1.63,1.61 -3.26,2.43 -4.87,2.43 -11.35,4.05 -22.7,8.11 -35.67,11.35 -12.98,4.87 -23.51,8.11 -33.25,9.74 -12.96,1.61 -23.51,6.48 -33.23,14.59 -11.35,4.05 -18.64,9.72 -21.08,16.22 -9.72,14.59 -29.99,23.51 -59.98,28.38 -31.62,6.48 -64.05,8.09 -97.3,4.85 -1.61,0 -3.24,0 -5.67,-0.8 -2.44,-0.81 -4.05,-2.44 -5.68,-4.05 -1.61,-1.63 -2.43,-3.26 -2.43,-4.87 -1.63,-1.63 -3.24,-3.24 -4.87,-4.05 -1.61,-4.87 -4.05,-8.11 -7.29,-9.74 -1.63,-1.61 -2.43,-3.24 -3.24,-4.05 -0.81,-0.8 -2.44,-0.8 -4.05,-0.8 -1.63,-1.63 -3.24,-2.44 -4.87,-2.44 -1.63,-1.61 -3.24,-2.43 -4.87,-2.43 -0.8,0 -2.43,0.81 -4.05,2.43 -1.61,0 -3.24,0 -4.85,0 -1.63,0 -3.26,0.81 -4.87,2.44 -3.24,1.61 -7.29,2.43 -12.16,2.43 -3.24,0 -7.29,0.81 -11.35,2.43 -9.74,0 -21.9,-2.43 -35.67,-7.29 -11.35,-4.87 -20.27,-12.16 -26.75,-21.07 -4.05,-11.36 -6.5,-27.56 -6.5,-47.84 0,-21.9 2.44,-53.52 6.5,-94.86 3.24,-25.14 7.29,-55.94 12.16,-92.42 4.85,-24.32 8.91,-49.46 12.16,-76.21 1.61,-4.87 2.43,-8.92 2.43,-12.16 0,-3.24 0.81,-6.48 2.43,-8.92 0,-3.24 0,-5.67 0.81,-6.48 0.81,-0.81 1.63,-0.81 3.24,-0.81 3.24,0 5.68,0 7.29,0 1.63,1.63 4.05,2.44 6.5,2.44 1.61,0 4.05,-0.81 5.67,-2.44 1.63,0 3.24,-0.81 4.87,-2.43 1.63,-1.63 4.05,-4.05 7.29,-7.29 0,-1.63 0.81,-3.24 1.63,-4.87 1.61,-6.48 4.05,-16.22 7.29,-30.81 9.72,-38.1 16.22,-77.83 19.46,-118.37 1.63,-8.11 2.43,-16.22 2.43,-24.32 4.87,-29.99 6.5,-54.32 6.5,-73.77 1.61,-5.68 2.43,-11.35 2.43,-15.4 0,-4.05 0,-6.48 0,-8.11 -1.63,-28.38 -0.81,-51.89 2.43,-71.35 3.26,-18.64 7.31,-38.1 12.16,-56.74 11.35,-33.25 21.08,-94.86 30.81,-185.66 3.26,-23.51 6.5,-46.21 9.74,-68.9 8.11,-53.52 15.4,-103.78 23.51,-151.61 6.48,-34.86 11.35,-62.42 14.59,-83.49 3.24,-20.27 4.87,-34.06 6.5,-39.73 9.72,-33.25 -44.6,-96.48 -163.78,-188.09 -42.97,-33.25 -83.49,-63.24 -123.22,-89.99 -38.1,-28.38 -64.87,-46.22 -81.07,-52.7 -56.76,-25.12 -62.44,-54.32 -16.22,-87.56 43.77,-34.86 132.96,-67.28 265.91,-97.28 46.21,-19.46 81.07,-28.36 107.02,-28.36 26.75,0 50.26,3.24 71.33,8.91 7.29,3.24 16.22,4.87 25.95,4.87l38.1 -187.27c15.4,-74.59 25.94,-129.72 30.81,-166.2 3.24,-34.86 4.87,-62.42 4.87,-83.49 0,-17.03 0.81,-38.11 2.43,-61.63 1.63,-6.48 2.44,-12.96 2.44,-18.64 1.61,-6.48 1.61,-12.16 1.61,-17.03 4.87,-21.88 9.74,-46.21 14.59,-71.33 8.11,-31.62 15.42,-59.18 21.08,-82.69 8.11,-24.32 15.4,-49.46 21.9,-76.21 8.09,-28.38 12.15,-53.5 13.77,-76.2 4.87,-18.66 9.74,-37.3 14.59,-54.33 0,-1.61 0.81,-2.43 2.44,-2.43 4.85,-16.22 10.53,-25.94 16.22,-30.81 6.48,-4.87 9.72,4.05 9.72,25.94 0,23.51 -2.43,53.52 -7.29,89.99 0,1.63 0,4.05 0,7.29 -4.87,36.49 -10.53,74.59 -18.64,114.31 -3.24,12.16 -4.87,22.7 -4.87,30.81 0,1.63 0.81,2.44 2.43,3.26 1.63,0.8 3.24,0.8 4.87,-0.81 9.74,-4.87 41.35,-119.18 94.86,-342.13 3.24,-9.72 5.67,-19.46 7.29,-28.38 6.48,-22.7 12.16,-42.15 18.64,-59.98 6.5,-25.14 12.16,-40.54 17.03,-47.02 0,0 0,-0.81 0.81,-1.63 0.8,-0.81 1.61,-0.81 2.43,-0.81 0.81,0 1.63,0 1.63,0zm-135.4 501.02c-1.61,0 -7.29,7.31 -17.02,21.08 -4.87,9.74 -8.92,20.27 -12.16,31.62 -2.44,10.53 -4.05,20.27 -4.05,28.38 0,10.53 0.8,16.22 2.43,16.22 2.43,0 7.29,-7.31 13.79,-21.08 4.85,-9.74 9.72,-20.27 14.59,-30.81 0,-3.24 0.81,-5.68 2.43,-7.29 1.63,-8.11 1.63,-15.4 1.63,-21.08 0,-6.48 0,-11.35 -0.81,-14.59 -0.81,-3.24 -0.81,-4.05 -0.81,-2.44zm-45.39 147.56c-1.63,0 -3.24,8.91 -4.87,28.38 0,25.12 3.24,32.42 9.74,21.07 3.24,-5.67 4.85,-13.77 4.85,-23.51 0,-3.24 -0.81,-6.48 -1.61,-10.53 -0.81,-4.05 -1.63,-7.29 -3.24,-10.53 0,-1.63 -0.81,-3.26 -1.63,-4.05 -0.81,-0.81 -0.81,-0.81 -0.81,-0.81 0,0 -0.81,0 -2.43,0zm-7.29 85.12c-4.87,0 -9.74,4.87 -13.79,14.59 -4.87,6.5 -8.11,15.4 -9.72,28.38 -3.26,9.74 -4.05,17.84 -2.44,25.94 0,6.5 2.44,9.74 7.29,9.74 3.26,-1.63 6.5,-5.68 8.92,-12.16 0,0 0.81,-0.81 2.43,-2.43 4.87,-7.29 8.92,-17.03 12.16,-28.38 1.63,-6.48 2.44,-11.35 2.44,-15.4 0,-4.05 0,-7.29 0,-10.53 0,-8.11 -2.44,-11.36 -7.29,-9.74zm-28.38 107.02c-4.87,1.61 -7.29,12.16 -7.29,30.81 0,23.51 3.24,30.81 9.72,21.88 0,-1.61 0.81,-3.24 2.44,-4.85 1.61,-6.5 2.43,-13.79 2.43,-21.9 0,-7.29 -1.63,-14.59 -4.87,-21.08 0,0 0,-0.8 0,-1.61 0,0 -0.81,-0.81 -1.61,-1.63 -0.81,-0.8 -0.81,-1.61 -0.81,-1.61 0,0 0,0 0,0zm-40.54 192.14c-3.24,1.61 -4.87,8.91 -4.87,21.88 0,8.92 0.81,16.22 2.44,21.08 1.61,1.61 3.24,2.43 4.05,2.43 0.81,0 1.61,-0.81 3.24,-2.43 1.63,-1.63 2.43,-4.05 3.24,-7.29 0.81,-3.26 1.63,-5.68 1.63,-8.92 1.61,-3.24 1.61,-6.48 0.81,-8.92 -0.81,-2.43 -1.63,-4.87 -3.26,-8.11 0,0 0,-0.81 0,-2.43 -1.61,-8.11 -4.05,-10.53 -7.29,-7.29zm1037.71 689.11c-5.67,1.61 -5.67,46.21 0,132.96 3.26,33.23 5.68,62.42 7.31,87.56 1.61,17.83 3.24,31.62 4.85,42.97 3.26,23.51 5.68,41.34 7.31,52.69 1.61,3.24 2.43,4.87 2.43,6.5 4.87,11.35 9.72,21.07 13.77,29.18 9.74,12.16 16.22,16.22 19.46,11.35 3.26,-3.24 3.26,-18.64 0,-47.02 -1.61,-29.18 -6.48,-72.14 -14.59,-130.51 -15.4,-122.42 -29.18,-184.05 -40.54,-185.66z"/>
   </g>
  </g>
 </g>
</svg>
