<?xml version="1.0" encoding="UTF-8"?>
<!DOCTYPE svg PUBLIC "-//W3C//DTD SVG 1.1//EN" "http://www.w3.org/Graphics/SVG/1.1/DTD/svg11.dtd">
<!-- Creator: CorelDRAW 2018 (64-Bit) -->
<svg xmlns="http://www.w3.org/2000/svg" xml:space="preserve" width="143.315mm" height="146.957mm" version="1.1" style="shape-rendering:geometricPrecision; text-rendering:geometricPrecision; image-rendering:optimizeQuality; fill-rule:evenodd; clip-rule:evenodd"
viewBox="0 0 13078.78 13411.2"
 xmlns:xlink="http://www.w3.org/1999/xlink">
 <defs>
  <style type="text/css">
   <![CDATA[
    .str0 {stroke:#2B2A29;stroke-width:18.25;stroke-miterlimit:22.9256}
    .fil1 {fill:#26252D}
    .fil0 {fill:#E2E2E2}
   ]]>
  </style>
 </defs>
 <g id="Слой_x0020_1">
  <metadata id="CorelCorpID_0Corel-Layer"/>
  <path class="fil0" d="M768.27 4532.21l0 0zm-764.23 2212.93l14.12 58.75c17.16,50.78 35.11,40.68 37.33,86.7 2.56,52.82 12.16,21.61 59.23,118.98 38.24,79.12 49.24,86.6 116.6,140.37 24.54,19.56 27.36,15.05 48.1,25.98 49.26,26.06 15.11,14.55 50.06,40.14 53.21,39.07 38.44,-3 95.66,52.74l117.16 69.84c86.4,105.79 123,49.84 217.06,80.87 191.56,63.25 314.57,-62.31 559.21,9.66 188.92,55.58 501.47,-0.87 671.34,-91.4 90.85,-48.4 144.27,-25.17 262.95,-41.32 103.41,-14.06 231.93,25.43 323.24,64.16 38.58,16.36 98.97,32.21 118.34,67.93 212.2,-51 117.15,40.09 209.8,75.3 31.69,12.04 121.4,26.94 200.05,73.8l184.33 99.42c184.4,78.06 58.88,104.11 231.31,162.1 66.25,22.28 116.74,83.33 193.04,85.2 -1.8,70.86 -45.32,77.06 77.54,47.53 -9.5,44.16 15.38,51.6 39.29,74.22 83.11,78.59 299.13,208.84 409.92,219.51 82.22,7.95 116.27,23.08 139.63,120.21 -41.87,32 47.26,-14.17 -17.16,1.89 -25.94,6.49 6.32,-19.99 -15.59,5.69 -47.08,55.1 63.05,106.15 -58.73,106.99 21.7,65.68 59.9,63.92 121.08,63.49 -28.45,-118.31 50.77,-52.98 26.44,-165.08 49.86,18.43 77.67,71.75 98.59,135.03 43.37,-23.52 13.12,-16.54 56.49,-40.04 48.84,59.98 24.89,63.09 96.21,86.68 2.65,0.87 6.65,1.55 9.07,2.55 27.83,11.64 31.63,21.2 30.54,40.86 -2.74,49.75 -6.86,115.86 -41.14,151.81 -113.84,119.43 -250.53,122.41 -381.91,133.65 -92.33,7.92 -93.95,46.97 -209.79,47.82 -0.31,-41.1 5.01,-60.17 8.16,-101.66 9.89,-129.24 54.88,-141.78 -67.3,-254.49 -104.71,25.17 -167.74,81.46 -164.31,176.61 3.49,97.46 34.69,110.11 0.75,203.04 -20,54.76 -64.94,90.38 -109.16,135.75 -42.28,43.4 -138.34,287.93 -81.12,323.55 35.24,21.9 200.99,-27.91 249.2,-60.65l61.01 -58.59c31.53,-39.35 62.85,-47.64 80.94,-89.06l10.07 -25.84c1.23,-2.34 2.92,-5.76 4.32,-8.03 13.92,-23.11 33.37,-37.03 55.55,-51.26 21.96,-14.13 58.93,-38.04 70.38,-43.19 99.46,-44.82 134.64,17.59 234.53,26.32 33.78,2.92 65.11,11.32 77.04,10.03 41.28,-4.47 85.18,-59.78 133.23,-84.56 102.38,-52.9 25.98,22.05 147,-4.21 -24.12,65.21 -19.92,33.73 38.47,57.37 57.49,23.27 26.06,34.4 82.88,57.89 52.2,21.59 46.58,-3.13 76.78,66.25 49.25,113.02 26.02,236.09 14.95,354.18 -10.49,111.89 -27.89,136.26 76.78,174.97 25.42,-27.59 22.08,-31.51 55.61,-61.92 29.7,-26.97 36.96,-32.73 60.92,-58.68 90.57,-0.65 100.3,23.76 152.07,82.46 -18.9,45.21 12.89,18.28 -44.02,37.05 138.01,127.22 87.76,200.26 73.51,258.26 -11.19,45.62 44.55,275.74 55.28,332.44 25.03,131.86 24.31,262.1 -2.59,392.92 -39.27,190.81 -46.95,237.14 127.41,273.76 90.26,18.93 53.55,75.23 127.02,105.98 45.89,-54.2 12.89,-166.44 -10.1,-262.11 82.37,-2.23 18.07,-64.34 73.19,-31.65 57.74,34.21 13.68,137.64 12.89,169.68 49.23,10.58 47.54,-1.79 86.09,33.56 70.1,64.3 76.42,186.35 151.59,239.97 -11.05,74.27 23.64,-62.01 -12.01,24.61 -11.38,27.59 -2.88,-7.23 -9.32,26.31 -11.52,59.97 121.26,724.39 135.32,819.87 9,61 -7.64,35.04 36.39,84.99 114.27,-27.46 90.03,-80.63 78.19,-186.72l-33.2 -489.46c-6.77,-83.97 1.4,-148.75 65.76,-183.67 13.99,64.46 -8.24,48.85 22.57,70.78 29.34,20.92 19.15,5.22 29.78,11.55 19.3,11.51 50.83,96.91 118.42,74.32 67.45,-22.52 -26.87,-187.55 129.32,-228.78 77.6,95.34 122.93,367.02 166.37,529.24 14.28,53.32 44.91,95.27 49.35,119.73 5.83,31.7 -15.57,59.01 -2.56,103.03 17.67,59.77 106.22,144.87 174.37,105.58 41.98,-24.21 26.02,-61.97 15.15,-120.47 -10.5,-56.82 0.27,-68.87 -18,-127.71 -15.21,-48.8 -39.1,-70.46 -55.13,-120.32 -14.35,-44.61 -18.7,-87.77 -35.87,-132.95 -24.75,-65.1 -95.44,-169.74 -80.32,-235.84 28.83,-126.09 105.42,-79.85 159.73,-67.98 2.98,0.64 6.73,0.97 9.71,1.58 4.33,0.86 27.2,4.01 29.12,4.69 94.45,32.94 195.4,274.68 236.81,362.03 50.79,107.17 62.61,65.95 111.06,132.04 45.28,61.76 97.3,98.4 165.66,129.94 46.23,21.35 29.88,33.13 70.85,75.77 34.47,35.86 91.5,61.06 120.64,99.06 56.67,73.91 76.06,187.55 155.93,250.4 56.59,44.49 216.82,-11.82 259.81,-73.17l58.68 -81.38c-32.47,-135.1 -72.22,-241.58 -116.77,-366.46 -155.07,-434.64 -29.39,-334.86 184.26,-531.34 97.88,-90 194.14,66.37 283.82,-6.63 22.29,92.78 -0.93,70.46 56.74,150.88 81.91,114.17 156.34,331.45 262.58,407.22 -27.78,75.09 -51.56,132.96 -105.28,191.44 -52.72,57.42 -50.73,129.05 -107.17,190.24 27.24,113.33 120.75,306.51 196.18,376.09 117.17,-28.15 183.44,-50.65 157.51,-170.13 9.02,3.79 28.54,16.37 31.94,17.53 13.24,4.41 91.31,-3.63 93.51,10.73 5.78,37.3 24.21,50.76 53.7,79.1 41.63,40.01 43.01,82.61 77.01,118.57 153.6,162.4 102.54,159.28 201.35,127.39l9.31 103.2c78.65,1.96 84.88,105.63 158.08,107.48 15.22,63.3 20.49,102.05 49.28,145.91l63.32 70.73c77.76,56.93 58.86,-13.52 224.15,138.86 282.83,-67.99 191.74,-323.86 57.47,-476.87 -119.38,-136.08 -75.67,-135.68 -117.63,-172.39l-111.93 -79.56c-21.48,-14.92 -32.35,-19.13 -53.22,-34.93 -14.17,-10.76 -42.03,-33.9 -56.23,-47.48 -46.3,-44.17 -77.01,-45.75 -109.55,-82.32 -14.2,-15.98 -25.44,-40.35 -38.13,-59.57 -30.83,-46.78 -57.61,-61.71 -94.77,-106.39 -57.38,-68.94 -116.15,-179.42 -161.57,-258.5 -26.68,-46.37 -52.62,-92.24 -73.52,-141.12l-212.4 -436.7c-81.16,-20.8 -130.47,-99.88 -100.1,-178.5 7.57,-19.58 31.42,-33.69 46.01,-46.52 -10.92,-33.1 -14.04,-32.63 -27.54,-59.55 89.83,2.25 16,68.8 92.74,127.13 72.47,55.06 44.52,42.91 95.4,105.41 72,-17.3 115.02,-61.96 116.49,-120.59 5.06,-27.57 5.14,9.85 -6.18,-16.2l-14.29 -48.67c1.76,-86.55 64.16,-149.77 147.46,-177.26 5.3,34.44 2.31,35.42 2.52,65.51l87.53 -21.04c8.23,53.5 11.83,140.06 20.06,193.55 237.72,-57.14 274.09,4.52 403.49,211.73 70.52,112.86 60.8,294.09 176.27,373.78 35.52,24.53 51.41,45.31 91.2,60.02 83.67,-73.79 98.96,-103.73 59.03,-252.84 -30.07,-112.29 -159.54,-216.21 -218.51,-322.48 -76.57,-138.06 -44.23,-150.2 -122.3,-252.96 -20.89,-27.51 -15.01,-34.7 -35.08,-64.62 -16.99,-25.35 -19.55,-21.34 -39.59,-39.83 33.18,-17.98 18.95,-1.75 31.32,-33.24l-55.84 -13.75c-35.05,-145.81 -46.79,-86.66 -76.08,-154.35 -15.06,-34.75 -16.78,-56.68 -31.84,-87.27 -16.52,-33.5 -17.11,-32.71 -33.5,-67.18 -26.49,-55.63 -38.71,-82.71 -66.6,-153.24 -17.17,-43.42 -30.78,-100.15 -15.66,-154.81 13.76,-49.81 48.46,-86 91.81,-114.78 0,0 -23.08,-52.17 -60.4,-144.05l-3082.4 0c-433.14,0 -790.68,-357.54 -790.68,-790.68l0 -5260.67c0,-433.14 357.54,-790.68 790.68,-790.68l3112.7 0c3.59,-8.47 7.48,-15.41 11.62,-20.41 50.85,-61.42 55.26,-11.02 119.54,-53.15 28.84,-18.91 59.25,-66.32 93.08,-93.13 81.36,-64.45 140.54,-93.62 210.57,-169.59 -9.53,-39.63 -15.7,-83.94 -33.38,-119.6 -25.01,-50.49 -32.13,-38.38 -64.71,-68.43 -102.2,24.57 -205.65,105.16 -266.7,156.52 -28.87,24.29 -80.61,67.5 -98.3,99.76 -24.99,45.41 -26.76,156.76 -85.04,168.97 -1.48,0.28 -5.45,0.2 -6.96,0.57l-13.73 4.23c-65.99,26.5 -113.68,11.25 -189.39,21.06 -34.68,4.5 -67.27,17.64 -99.68,23.49 -72.09,13.03 -46.32,1.49 -95.25,-18.55 -122.07,-49.98 -160.21,-205.98 -272.89,-268.26 -52.57,-29.08 -205.25,-27.73 -278.82,-49.71 -98.37,-29.39 -84.98,-192.11 -188.91,-213.82 -147.17,-30.72 -128.58,-23.64 -220.67,-144.65 -270.4,-355.32 -375.6,-72.27 -522.5,-103.06 -25.19,-5.27 -38.16,-19.4 -71.16,-22.62 -67.41,-6.53 14.24,6.11 -59.64,6.7 -28.89,0.2 -50.37,-9.34 -77.07,-11.49 -127.05,-10.19 -273.49,26.72 -406.55,36.91 -118.69,9.13 -199.72,-15.43 -285.58,-56.04 -45.19,-21.38 -68.21,-60.16 -117.95,-68.54 -16.03,-2.67 -49.49,-2.13 -72.47,-4.02 -39.6,-3.33 -31.48,-8.79 -83.62,5.57 -73.42,20.2 -175.1,96.49 -255.52,133.71 -372.25,172.34 -299.6,53.09 -352.47,-19.31l-26.21 -26.83c-1.84,-2.46 -4.13,-5.25 -5.81,-7.92 -1.8,-2.87 -3.51,-5.94 -5.12,-9.07 -9.82,-18.9 -11.84,-35.2 -19.06,-55.91 -28.6,-81.81 -80.41,-79.21 -123.93,-145.89 -33.43,-51.21 -16,-38.98 -61.76,-73.26 -165.65,-124.24 -217.33,-532.71 -295.95,-735.52l-31.35 -53.28c-1.89,-2.06 -4.85,-4.29 -6.81,-6.29 -8.72,-8.84 -30.8,-30.08 -67.29,-111.38 -32.63,-72.61 -101.85,-221.91 -143.97,-274.93 -53.83,-67.75 -130.42,-347.15 -204.86,-414.13l-13.99 -11.95c-2.84,-2.54 -10.81,-10.06 -13.6,-12.69l-77.01 -100.54c-90.71,-112.85 -79.15,-177.66 -230.49,-320.08l-70.69 -58.71c-41.59,-35.76 -154.68,-23 -210.88,10.06 -40.31,23.68 -86.57,109.16 -116.8,142 64.19,72.79 64.47,199.56 116.21,280.28 24.84,38.71 30.46,21.98 48.97,76.77 24.59,72.72 28.4,144.06 59.2,216.74 27.3,64.33 53.8,132.94 86.13,172.75 42.09,51.84 46.34,102.53 95.58,157.29 59.2,65.81 81.63,30.8 132.39,97.27 42.28,55.35 83.56,72.53 113.43,128.16 13.85,25.74 27.7,71.08 39.94,91.44 23.93,39.74 14.25,36.62 70.35,24.47 -14.6,67.99 11.54,53.64 39.56,109.51 -72.19,-1.8 -30.94,-63.06 -123,-60.4l-60.69 10.67c-74.91,19.23 -187.65,46.62 -214.05,104.75 -66.83,146.98 -40.12,297.37 -43.87,442.57 -3.15,122.36 78.73,222.05 152.29,444.88 -294.67,2.04 -206.78,191.49 -138.29,469.75 23.29,94.66 57.13,203.94 -38.03,265.46 -59.46,38.47 -198.14,-4.84 -258.44,-7.91 -21.35,-1.1 -61.64,3.16 -75.72,1.73 -30.45,-3.04 -35.37,-16.81 -58.53,-26.3 -16.67,-6.86 -40.96,-6.75 -66.61,-13.07 -100.64,-24.84 -179.9,-79.93 -229.24,-182.87 -109.83,-229.17 -148.33,-515.43 -258.04,-501.43 -18.4,85.76 37.23,157.88 -2.4,265.11 -63.64,13.79 -31.33,3.16 -75.65,1.65 -33.41,-1.11 -35.53,3.67 -66.53,4.16 -56.69,0.9 -19.94,-2.26 -64.84,-16.01 -47.18,-14.44 -53.99,1.43 -93.18,-21.96 -90.57,-54.01 -65.84,-10.32 -207.47,-44.27 -73.82,-17.68 -192.05,-41.26 -212.41,62.03l12.27 117.4c16.79,49.85 62.36,25.66 114.13,13.22 35.18,70.11 83.11,92.01 164.58,79.46 34.92,145.3 134.71,65.12 166.65,198.01 64.41,-13.97 73.53,-5.45 110.33,28.77 59.71,55.5 28.06,19.47 86.19,50.79 63.29,34.17 91.55,113.54 160.19,138.9 67.46,-33.82 58.49,-103.24 113.49,-133.07 21.53,65.22 40.01,111.34 60.6,197.05 34.92,6.99 2.08,0.57 33.76,0.63 8.18,0 11.25,-1.82 19.26,-0.15 7.79,50.63 -7.15,78.14 -12,122.09 -7.69,69.44 11.04,57.01 50.58,93.48 -118.25,28.42 -104.23,96.12 -268.52,37.57 -24.47,-8.71 -37.55,-20.16 -56.3,-24.44l-51.95 -7.13c-36.54,-19.58 -51.38,-69.95 -71.41,-109.89l-5.22 18.11c-0.8,2.21 -2.17,6.52 -3.06,8.81l-17.23 32.11c-112.47,-28.84 -228.6,-15.37 -328.09,65.62 19.88,82.65 30.25,199.97 85.09,261.52l55.86 113.65c1.51,7.16 4.15,53.51 3.49,64.89 -6.58,115.4 32.24,212.75 43.69,325.57 31,305.61 -61.94,284.15 -230.48,278.52 -90.8,-3.03 -161.8,12.92 -256.44,18.28 -79.18,4.51 -46.83,-23.56 -114.44,-22.08l-112.75 -7.55c-38.62,-2.22 -58.06,22.96 -116.51,35.07 -59.67,12.37 -70.27,-2.47 -119.93,2.91 -139.36,15.17 -212.41,109.57 -322.77,-12.68 -21.71,-24.09 -31.58,-22.03 -65.51,-32.35 -45.26,-13.75 -152.73,-107.73 -213.76,-138.46 -173.24,-87.27 -416.57,-146.15 -603.62,-198.3 -93.59,-26.1 -104.61,-69.67 -195.98,11.46 -62.71,55.67 -96.92,100.9 -58.42,177.64l-19.02 31c58.73,54.15 49.37,-6.6 71.08,75.5 87.29,-20.98 118.27,7.5 183.42,31.25l96.68 33.67c18.95,78.85 0.07,136.21 41,192.96 110.31,153.01 81.2,80.97 279.28,190.59l28.93 11.74c1.59,0.37 5.36,0.65 6.95,0.87 49.24,7.21 63.93,17.27 123.64,4.32 17.07,71.03 37.69,69.83 58.08,131.51 70.99,-17.06 79.34,1.88 143.55,-8.03 -0.4,-55.2 15.27,-40 0.94,-106.02 -58.42,-12.57 -67.07,19.17 -108.32,-32.05 -41.54,-51.55 -14.48,-68.77 -96.76,-50.93l-6 -24.99c32.58,-16.34 26.73,-12.81 44,-37.03 -105.27,25.3 -36.18,28.05 -103.52,64.53 20.56,-55.6 22.06,-38.93 -15.19,-95.31 -32.23,-48.77 -35.16,-46.63 -67.4,-83.2 44.57,-0.32 47.03,7.37 86.8,14.99 61.76,11.83 39.85,-2.04 98.94,-4.89 44.93,-2.12 244.36,77.46 303.04,97.21 52.67,17.71 61.5,54.78 110.41,80.86l16.62 7.69c61.41,-43.8 -39.18,47.35 11.12,-15.37 30.19,-37.63 15.62,-18.24 82.24,1.39 85.36,25.13 168.92,58.87 221.37,126.85 92.36,119.79 331.36,207.33 374.07,329.99 19.49,56.02 41.5,107.32 -7.86,134.11 51.83,47.78 165.97,76.86 186.08,113.98 -74.98,-19.24 -129.93,-25.42 -203.77,13.62 -34.55,18.27 -9.12,12.19 -49.28,33.97l11.65 -56.85c10.16,-34.71 13.17,-9.76 14.3,-55.21 -33.27,-28.19 -47.52,-16.91 -81.63,-40.8l-37.1 -26.47c-21.19,-9.83 -19.91,-3.6 -44.39,-14.57l-38.3 -24.51c-26.55,-16.75 -15.27,-10.39 -41.38,-19.52 -93.85,-32.88 -105.92,-99.59 -224.73,-139.08 -67.54,-22.47 -41.45,-2.78 -96.61,14.49 -44.77,14.06 -54.82,3.57 -101.19,13.61 37.47,31.73 38.68,9.75 72,39.2 43.68,38.63 8.42,34.91 45.07,65.62 18.32,15.35 117.77,19.59 153.09,28.65 -19.61,53.01 -28.48,32.09 -47.49,77.53l100.58 27.28c58.1,22.26 28.01,4.78 74.7,52.15 74.32,75.41 116.63,44.64 169.25,89.27 25.19,21.41 40.94,46.97 73.99,70.64 82.85,59.34 153.11,144.68 73.49,243.53 -54.58,67.73 -108.86,39.11 -190.82,35.14 -399.53,-19.47 -132.2,-183.89 -509.55,-247.44 -5.34,-0.91 -55.49,-10.05 -57.46,-10.65l-40.26 -21.3c-35.97,-21.08 -46.17,-19.96 -88.77,-29.16 -212.41,-45.9 -128.32,-62.14 -408.61,-64.05 -110.06,-0.73 -377.97,-30 -414.51,-16.87 -71.15,25.53 -47.26,18.32 -108.45,16.03 -85.22,-3.18 -36.04,5.26 -91.67,30.25 -37.86,17.02 -63.07,-0.13 -118.9,24.2 -68.91,30.04 3.57,29.91 -92.29,41.69 -79.92,9.86 -35.61,-0.62 -97.75,34.19 -52.19,29.18 -64.21,7.36 -53.97,73.82 -57.21,-23.94 -5.55,-19.5 -59.04,-25.47 -1.65,66.42 -20.4,58.83 -77.21,91.32 -106.61,61.02 -42.55,65.59 -160.81,168.07 -30.96,26.8 -32.41,62.68 -58.83,91.94l-34.05 53.8c-33.98,115.18 -86.76,231.28 -67.69,357.65zm10543.86 -3458.39c8.73,-29.27 13.16,-60.53 11.41,-94.55 -4.83,-93.61 -32,-148.21 -109.25,-140.27 -144.97,14.86 -250.81,127.87 -342.15,234.82l439.99 0zm-5626.09 -17.42c11.48,47.8 -2.75,5.46 21.52,34.49 74.72,-40.47 -15.48,-29.02 107.29,-147.53l141.7 -137.15c-57.33,-173.62 9.74,-14.54 -20.55,-140.54 -13.94,-58.01 -40.42,-96.4 -80.08,-113.01 -68.08,36.91 -9.08,47.55 -61.83,111.43 -26.97,32.66 -38,21.23 -65.15,109.37 -8.53,27.62 -46.94,266.13 -42.9,282.95zm-50.11 -1694.07c13.39,40.46 34.3,71.08 52.07,106.5 15.09,-44.14 -20.44,-83.98 -52.07,-106.5z"/>
  <path class="fil1 str0" d="M6629.15 2710.92l4887.33 0c854.25,0 1553.18,698.93 1553.18,1553.18l0 4887.33c0,854.25 -698.93,1553.18 -1553.18,1553.18l-4887.33 0c-854.25,0 -1553.18,-698.93 -1553.18,-1553.18l0 -4887.33c0,-854.25 698.93,-1553.18 1553.18,-1553.18zm0 818.61c-402.4,0 -734.56,332.17 -734.56,734.56l0 4887.33c0,402.4 332.17,734.56 734.56,734.56l4887.33 0c402.4,0 734.56,-332.17 734.56,-734.56l0 -4887.33c0,-402.4 -332.17,-734.56 -734.56,-734.56l-4887.33 0z"/>
  <g id="_2828415493440">
   <path class="fil0" d="M10657.04 8426.46c-416.56,384.04 -972.94,618.72 -1584.2,618.72 -1291.21,0 -2337.93,-1046.72 -2337.93,-2337.93 0,-675.56 286.64,-1284.07 744.79,-1710.88 164.78,1305 1253.55,2628.66 2881.62,3314.82 98.34,41.45 196.96,79.85 295.72,115.28z"/>
   <path class="fil0" d="M11177.06 7727.31c-97.78,201.35 -223.59,386.56 -372.4,550.53 -98.93,-35.47 -197.76,-73.96 -296.29,-115.48 -1619.57,-682.58 -2705.45,-1996 -2878.96,-3294.37 193.16,-151.79 410.84,-273.8 646.09,-359.13 210.91,1268.37 1283.59,2536.7 2865.3,3203.32 12.08,5.09 24.17,10.13 36.27,15.14z"/>
   <path class="fil0" d="M11400.91 6923.07c-20.03,218.79 -70.21,428.86 -146.32,626.03 -1523.76,-653.3 -2568.51,-1866.05 -2814.47,-3093.12 180,-50.48 368.79,-79.97 563.55,-85.63 341.28,1001.63 1199.7,1953.67 2397.24,2552.72z"/>
   <path class="fil0" d="M9206.45 4373.19c1227.72,69.18 2202.19,1085.56 2204.27,2330.09 -1066.59,-570.04 -1846.16,-1423.14 -2204.27,-2330.09z"/>
  </g>
 </g>
</svg>
