<?xml version="1.0" encoding="UTF-8"?>
<svg width="234px" height="234px" viewBox="0 0 234 234" version="1.1" xmlns="http://www.w3.org/2000/svg" xmlns:xlink="http://www.w3.org/1999/xlink">
    <!-- Generator: Sketch 3.7.2 (28276) - http://www.bohemiancoding.com/sketch -->
    <title>pay_tab_2</title>
    <desc>Created with Sketch.</desc>
    <defs></defs>
    <g id="Page-1" stroke="none" stroke-width="1" fill="none" fill-rule="evenodd">
        <g id="pay_tab_2" fill="#E2E2E2">
            <path d="M199.5194,34.2322 C177.601041,12.3136687 147.873263,-4.84775604e-05 116.8759,-4.84775604e-05 C85.8785373,-4.84775604e-05 56.1507593,12.3136687 34.2324,34.2322 C12.3137707,56.1505073 -1.41661728e-05,85.8783048 -1.41661728e-05,116.8757 C-1.41661728e-05,147.873095 12.3137707,177.600893 34.2324,199.5192 C56.1507463,221.437756 85.8785292,233.75149 116.8759,233.75149 C147.873271,233.75149 177.601054,221.437756 199.5194,199.5192 C221.43798,177.600867 233.751731,147.873079 233.751731,116.8757 C233.751731,85.8783211 221.43798,56.1505333 199.5194,34.2322 L199.5194,34.2322 Z M196.5131,196.5129 C164.302927,228.723193 115.861343,238.358871 73.776644,220.926821 C31.6919455,203.494771 4.25202129,162.427948 4.2521,116.8758 C4.25207348,87.006103 16.1177527,58.3597833 37.238818,37.238718 C58.3598833,16.1176527 87.006203,4.25197348 116.8759,4.252 C162.427975,4.25201894 203.494696,31.6919204 220.926745,73.7765404 C238.358793,115.86116 228.723231,164.302669 196.5131,196.5129 L196.5131,196.5129 Z" id="Shape"></path>
            <path d="M126.37,62.876 L90.9272,62.876 L90.9272,116.3129 L75.0272,116.3129 L75.0272,128.1254 L90.9272,128.1254 L90.9272,135.9068 L75.0272,135.9068 L75.0272,147.7192 L90.9272,147.7192 L90.9272,170.8755 L105.9905,170.8755 L105.9905,147.7192 L137.9195,147.7192 L137.9195,135.9067 L105.9905,135.9067 L105.9905,128.2935 L126.37,128.2935 C136.470867,128.2935 144.3864,125.306167 150.1166,119.3315 C155.863267,113.356833 158.7324,105.441233 158.724,95.5847 C158.724,85.8125667 155.854867,77.9139333 150.1166,71.8888 C144.369867,65.8888 136.454333,62.8845333 126.37,62.876 L126.37,62.876 Z M139.2816,110.7493 C136.37,114.7493 132.0662,116.7238 126.3703,116.7238 L111.4031,116.7238 L106.0411,116.7284 L105.9905,74.4457 L126.37,74.4457 C132.1166,74.4457 136.4205,76.471 139.332,80.4957 C142.218,84.5209667 143.661033,89.6009667 143.6611,95.7357 C143.6613,101.7617 142.201467,106.766233 139.2816,110.7493 L139.2816,110.7493 Z" id="Shape"></path>
        </g>
    </g>
</svg>