<svg xmlns="http://www.w3.org/2000/svg" xmlns:xlink="http://www.w3.org/1999/xlink" width="25px" height="25px" viewBox="0 0 868 867"><g id="Page-1" stroke="none" stroke-width="1" fill="none" fill-rule="evenodd"><circle id="Oval" fill="#B0B833" cx="434.009521" cy="433.5" r="433.5"></circle><path d="M527.831299,618.738403 L515.421387,611.237183 C511.435059,608.493205 509.269694,607.121216 508.925293,607.121216 C508.580892,607.121216 506.695313,605.852498 503.268555,603.315063 L494.82959,597.790894 L489.517578,593.671753 L482.944824,588.370483 L477.32251,583.609253 L472.844238,579.161499 L466.723389,573.463745 L462.287354,568.33606 L456.873291,562.045044 L453.480957,557.352173 L449.461182,551.80188 L446.294678,546.991821 L443.000977,540.551636 L439.789307,534.271851 L437.665771,528.183472 C436.5896,524.397339 436.051514,522.395955 436.051514,522.179321 C436.051514,521.962687 435.47762,519.204712 434.329834,513.905396 L433.501953,506.849976 L433.095459,499.037231 C433.366455,491.374471 433.501953,487.41923 433.501953,487.171509 C433.501953,486.923787 433.777913,483.65686 434.329834,477.370728 C434.975016,472.548787 435.297607,469.969849 435.297607,469.633911 C435.297607,469.297974 435.85848,466.848429 436.980225,462.285278 L439.789307,452.908569 L441.966553,447.062378 C444.196533,441.891642 445.311523,439.203084 445.311523,438.996704 C445.311523,438.790324 446.380697,436.320435 448.519043,431.587036 L452.73291,423.005981 L457.306885,414.75769 C459.811605,410.744832 461.063965,408.738403 461.063965,408.738403 C461.063965,408.738403 462.280029,406.752482 464.712158,402.78064 L469.144043,396.986938 L476.838623,386.335571 L482.944824,377.98938 L490.502197,368.62439 L497.843994,359.763306 L505.256348,349.677368 L511.769775,341.220825 L517.805664,333.115845 L524.512451,324.035767 L530.594971,315.543335 L535.615479,307.772827 L539.939453,301.259644 L545.527832,292.86731 L550.501221,285.410522 L554.612793,279.20813 L557.724609,274.881958 L559.654785,272.336304 L561.156006,271.690308 C562.335693,271.690308 562.925537,271.690308 562.925537,271.690308 C562.925537,271.690308 563.575928,271.90564 564.876709,272.336304 L566.365967,274.16687 L570.931396,283.463257 L575.78833,294.257202 L580.62793,304.151978 L588.02417,320.370483 L593.202881,330.919312 L598.802002,342.518677 L602.31665,349.99939 L609.005859,364.267212 L614.093994,375.327759 L620.616699,388.231323 L624.523682,396.986938 L629.461914,408.738403 L632.674072,417.158813 L634.116943,421.76062 L635.629639,427.113159 L637.266602,434.605591 C638.068522,438.818807 638.469482,440.925415 638.469482,440.925415 C638.469482,440.925415 638.798584,443.468628 639.456787,448.555054 L640.019043,456.324829 L640.019043,463.794556 L640.019043,471.418579 L639.456787,478.959839 L638.000977,485.177368 L636.145264,493.628784 L634.116943,500.90979 L629.461914,510.054565 L625.908936,517.476929 L620.128418,527.025024 L613.655518,536.404175 L606.972412,545.218628 L597.968262,556.545288 L591.234619,564.82312 L585.023438,571.672241 L578.887207,577.990112 L573.242432,584.438599 L568.628174,589.293579 L564.229248,595.036743 L559.654785,600.608765 L556.833984,605.194946 C555.35319,606.437948 554.612793,607.180379 554.612793,607.422241 C554.612793,607.785034 553.044922,608.484009 553.044922,608.484009 C553.044922,608.484009 551.327148,607.422241 551.327148,607.422241 C551.327148,607.422241 550.087891,605.915161 550.087891,605.555054 C550.087891,605.194946 548.384277,599.272827 548.384277,599.272827 C548.384277,599.272827 547.432129,595.832967 545.527832,588.953247 L541.974365,577.612427 L539.939453,567.640015 L537.192383,553.478149 L536.206055,542.822388 L535.225098,534.780151 L534.203613,524.830688 L534.203613,510.369751 L534.630127,496.912476 L536.206055,478.959839 L537.192383,467.925415 L538.233643,455.521118 C539.046956,446.875285 539.61556,442.379761 539.939453,442.034546 C540.263346,441.689331 540.807699,438.703735 541.57251,433.077759 L542.466797,427.113159 L542.466797,425.190796 L541.57251,427.113159 L539.939453,431.587036 L536.206055,441.504761 L532.988281,450.18103 L529.553467,463.231567 L526.619141,472.916138 L523.296387,483.59314 L522.010742,489.451782 L520.310059,497.644165 L519.24707,504.506714 L517.805664,511.830444 L516.64624,521.052612 L515.933105,527.025024 L515.018555,536.404175 L515.018555,545.556519 L515.018555,553.478149 L515.018555,564.392944 L515.421387,573.463745 L516.64624,582.066528 L517.469727,586.874146 L518.541992,591.324829 L520.310059,597.050903 L522.533203,604.444702 L524.512451,608.484009 L526.157715,612.159302 L527.831299,615.240601 L528.893066,616.86853 L528.580322,618.077026 L527.831299,618.738403 Z M502.737305,631.894409 C503.041166,632.222448 502.010323,632.357783 499.644775,632.300415 L492.086426,633.705688 L475.979736,633.705688 L454.668701,633.705688 L435.509033,633.705688 C426.893473,632.498169 422.369792,631.894409 421.937988,631.894409 C421.290283,631.894409 412.793457,630.483276 411.82373,630.483276 C411.177246,630.483276 408.26237,629.791626 403.079102,628.408325 C397.292969,626.83785 394.399902,626.052612 394.399902,626.052612 C394.399902,626.052612 391.26709,625.00297 385.001465,622.903687 C378.58724,620.724162 375.380127,619.634399 375.380127,619.634399 C375.380127,619.634399 370.900879,617.729777 361.942383,613.920532 L354.499512,610.159302 L338.556885,600.236694 C336.285505,598.88105 334.047631,597.398303 331.843262,595.788452 C328.536708,593.373676 327.180082,592.571619 322.734375,588.681519 C318.288668,584.791418 310.587352,576.806228 306.042236,571.835571 C301.497121,566.864914 297.138672,559.471802 297.138672,559.471802 C297.138672,559.471802 295.741511,556.584295 294.369873,553.66394 C293.455448,551.717038 292.145634,548.899248 290.44043,545.210571 L285.902344,535.103638 L282.936279,526.490112 L279.622559,516.882202 L276.6604,504.877075 L274.844727,495.337524 L273.151367,486.565552 L271.860596,472.948853 L270.740479,462.279663 C270.54484,454.445679 270.447021,450.528687 270.447021,450.528687 C270.447021,450.528687 270.134521,444.834351 269.509521,433.445679 L269.509521,424.385376 L269.911621,408.670532 L269.911621,395.641724 L270.447021,380.954468 L270.740479,372.331665 L272.444824,353.864868 L273.151367,342.32312 L273.616211,331.568481 L275.623291,304.812866 L276.6604,290.265259 L278.369385,277.044312 L280.058105,268.021606 L281.83667,262.622192 L283.60083,259.052856 L285.902344,255.950806 L287.974121,253.335571 L291.169922,250.740845 L294.918945,249.098267 C297.888509,248.721313 299.54834,248.414429 299.898438,248.177612 C300.248535,247.940796 301.199626,247.940796 302.751709,248.177612 C305.925863,248.414429 307.691813,248.532837 308.049561,248.532837 C308.586182,248.532837 311.776123,249.453979 312.372559,249.453979 C312.770182,249.453979 313.751546,249.882935 315.31665,250.740845 L322.734375,254.370239 L331.291504,260.359497 L337.684814,264.033569 L346.985596,270.495239 L353.547363,274.693481 L364.512939,281.11853 L374.784424,287.603882 L385.001465,294.170776 L400.280029,303.641235 L415.462158,313.01355 L425.631348,319.411499 L438.079346,327.123169 L450.096191,333.942993 C454.090169,336.502726 456.087158,337.782593 456.087158,337.782593 C456.087158,337.782593 458.744059,339.296102 464.057861,342.32312 L472.479248,347.387573 L477.974854,351.298218 L482.925781,355.231567 C483.44987,356.169067 483.711914,356.8538 483.711914,357.285767 C483.711914,357.933716 482.925781,358.862427 482.925781,359.291382 C482.925781,359.577352 482.258789,360.348674 480.924805,361.605347 L476.989258,367.19397 L471.980225,374.276978 L466.63501,380.954468 L459.399414,390.225464 L455.540527,396.138794 C453.548014,399.744751 452.444987,401.717489 452.231445,402.057007 C452.017904,402.396525 450.531738,404.956421 447.772949,409.736694 L443.974121,416.398315 L440.489502,422.442993 L437.536377,429.373169 L434.578857,435.409302 C432.595947,440.044556 431.604492,442.362183 431.604492,442.362183 C431.604492,442.362183 430.417969,445.292196 428.044922,451.152222 L424.927734,462.829224 L423.530762,469.025513 L422.585693,477.911987 L421.357666,487.277222 L421.357666,495.79187 L421.357666,503.636597 L420.631592,505.456909 C419.967204,504.672892 419.63501,504.280884 419.63501,504.280884 C419.63501,504.280884 419.163981,503.545207 418.221924,502.073853 C416.154215,498.996867 415.120361,497.365763 415.120361,497.180542 C415.120361,496.995321 413.893799,495.01062 411.440674,491.22644 L407.720947,485.809937 L404.338623,479.741821 L399.960693,471.286011 C396.253499,464.323771 394.399902,460.842651 394.399902,460.842651 C394.399902,460.842651 392.518717,456.660604 388.756348,448.296509 L384.293213,438.106079 L379.418213,427.322144 L377.30249,422.442993 L375.380127,417.103638 C372.703044,413.056274 371.364502,410.864868 371.364502,410.529419 C371.364502,410.19397 371.10376,410.19397 370.582275,410.529419 L370.582275,414.038696 L372.399902,420.611938 C373.392741,424.148397 373.88916,425.916626 373.88916,425.916626 C373.88916,425.916626 374.58488,428.253133 375.976318,432.926147 L377.868652,439.28894 L380.598633,449.297241 L383.300049,457.768433 L385.531738,463.739868 L388.756348,472.948853 L391.574707,481.464478 L395.12207,490.019653 L398.828613,498.952515 L402.154053,508.371704 L405.112549,514.343384 L407.720947,519.717651 L411.440674,527.503052 L415.998047,536.355347 L420.208984,544.251099 L423.935303,551.161499 L428.437988,557.581177 L434.126953,566.471558 L438.533203,572.882202 L441.737549,577.928833 L447.157959,584.251343 L451.692383,590.514771 L455.540527,595.180054 L459.97876,600.236694 C464.174235,604.702026 466.271973,606.934692 466.271973,606.934692 C466.271973,606.934692 468.341064,608.63033 472.479248,612.021606 L479.352295,617.120483 L485.384033,621.698364 C489.641683,625.00175 491.875814,626.653442 492.086426,626.653442 C492.297038,626.653442 493.930745,627.579549 496.987549,629.431763 C500.238839,630.445348 502.155424,631.26623 502.737305,631.894409 Z" id="Combined-Shape" fill="#FFFFFF"></path></g></svg>