<svg xmlns="http://www.w3.org/2000/svg" xmlns:xlink="http://www.w3.org/1999/xlink" width="25px" height="25px" viewBox="0 0 30 30"><g id="Page-1" stroke="none" stroke-width="1" fill="none" fill-rule="evenodd"><g id="hot-pepper-and-flame"><circle id="Oval" fill="#FE3E11" cx="15" cy="15" r="15"></circle><path d="M21.1364939,10.1900435 C20.871598,9.93207797 20.4480259,9.93730232 20.1900337,10.2022515 C19.9320681,10.4671739 19.9373191,10.890746 20.2022416,11.1487116 C20.2044007,11.1508973 20.4236367,11.4053711 20.4027127,11.8921151 C20.3934635,12.1070865 20.3294918,12.4238526 20.1243562,12.8329245 C20.3387677,12.9519117 20.5373996,13.0948616 20.7116956,13.2656392 C20.8694123,13.4202639 21.005352,13.5961592 21.1219936,13.7870612 C21.5010521,13.1565143 21.7146907,12.5420935 21.7400661,11.9492098 C21.7870852,10.8567611 21.2031843,10.2549747 21.1364939,10.1900435 Z" id="Shape" fill="#FFFFFF" fill-rule="nonzero"></path><path d="M19.0870897,14 C18.1968446,14 17.2512374,14.4444695 16.7352796,15.1634572 C14.0918923,18.850435 11.4172654,19.0395511 10.0106627,19.0395511 C9.8498274,19.0395511 9.70559805,19.0369389 9.58010705,19.0369389 C9.0907508,19.0369389 8.88159025,19.074389 9.06678809,19.4400134 C9.50555345,20.3071488 11.5070389,21.3686512 13.9655483,21.3686512 C15.9456566,21.3686512 18.2220601,20.6797302 20.2156824,18.6456192 C21.2213696,17.6198342 21.5926715,15.5634931 20.5673131,14.5581791 C20.1733811,14.172137 19.6408974,14 19.0870897,14 Z" id="Shape" fill="#FFFFFF" fill-rule="nonzero"></path><path d="M10.0478271,17.1316231 C9.99758274,16.4804986 10.1190489,15.0033672 12.0598412,14.1716028 C12.0598412,14.1716028 11.3393342,15.9142165 12.3152213,16.7958787 C13.0232539,16.2432972 13.5212996,15.3407642 13.5723969,14.4678981 C13.7192385,11.9500817 11.9613516,10.6249362 10.8200712,10.0345047 C10.703323,9.97391829 10.5607996,9.99438921 10.4662815,10.0859219 C10.3712836,10.1770015 10.3455617,10.3185921 10.4013503,10.4375793 C10.8423014,11.3736174 11.1390497,13.0482078 9.25268652,14.9973165 C8.67675534,15.5920394 9.14604049,16.686114 10.0478271,17.1316231 Z" id="Shape" fill="#FFFFFF" fill-rule="nonzero"></path></g></g></svg>